<?xml version="1.0" encoding="UTF-8"?>
<svg id="Layer_1" data-name="Layer 1" xmlns="http://www.w3.org/2000/svg" viewBox="0 0 400.79 108.68">
  <defs>
    <style>
      .cls-1 {
        fill: #000;
      }

      .cls-1, .cls-2 {
        stroke-width: 0px;
      }

      .cls-2 {
        fill: #3da9db;
      }
    </style>
  </defs>
  <g>
    <path class="cls-2" d="M29.24,44.26l.22.22v10.02l-1.3.9v.22l.67.22c0-.45.13-.67.4-.67h.22v.45l-5.66,1.98-3.73,2.83-1.75-.45c.3.66.6,1.02.9,1.08,0-.42.13-.63.4-.63v.4c-2.49,3-4.07,6.78-4.76,11.37l-.22-.22h-.67c0,.3.22.45.67.45l.22.22v.45c0,1.74-.22,2.61-.67,2.61h-.22l.22.22v.45l-.45.4-.63-.22-.22.22v.22l.22.22h.22l.63-.22c.54.54,1.05,2.8,1.53,6.78l-.63.63h-.22v.22h.4v-.22c.75,0,1.12.66,1.12,1.98l-.22.22c.33.09,1.5,1.92,3.5,5.48,0,.33,1.53,1.48,4.58,3.46l3.68.9v.63l-.22.22v.22l-.18-.22h-.45v.67h-.45v-.22l.22-.22v-.22l-1.3-.22c-.45,1.32-1.26,1.98-2.43,1.98v.45c.45,0,.67.29.67.85v.22l.85-.22-.18-.22v-.18c.72,0,1.08-.15,1.08-.45v-.45l-.22-.63h.22l.85-.22h.45l1.53.4v-.18c.6.21.9.42.9.63l-.22.22v.22h.22l-.22.22v.63l.22.22v.22l-.22.22h-.22l-.45-.45c0,.3-.22.45-.67.45l-.18,1.08h.18l.9-.22c0,.3.28.45.85.45v.45l-.4,1.08h-.22l-.9-.45-.85.67v.45h.45v.85l-.45.45-.9.22v-.67h.45v-.45l-.63-.18c.87-1.08,1.3-1.89,1.3-2.43-.33,0-.84.58-1.53,1.75l.22.22h-.22l-.67-.45h-.22l-.4.45c0,.42.28.63.85.63l-.22.67.22,1.08-.22-.22h-.22v.22c.45,0,.75.51.9,1.53h-.45v.22l-3.91-.85.18-1.12-1.3-.4-.45.4c0-.57-.21-.85-.63-.85h-.22c0,.57-.29.85-.85.85-2.64-.81-5.77-3.05-9.39-6.74l.18-.9-.18-.22h-.22l-.45.45-3.28-4.58.22-.67h-.22c-.54,0-1.48-1.96-2.83-5.88,0-1.32.51-1.98,1.53-1.98l-.22-1.08c.3,0,.45.22.45.67l.22-.22h.18l.22.22v-.67h.67l.45.45-.67.63.22.22v.45l-.22-.22h-.22l-.22,1.53,1.12.22v-.22c.9,0,1.62.43,2.16,1.3l-.22.22.22.22h.45l-.45-1.3h.22l.67.22v-.22l.63.45.22-.22h.45v.45l.45-.45v-.22l-.22-.22v-.22l.22-.22-.22-.22h-.22c0,.6-.22.9-.67.9h-.22c-.66-.72-1.17-1.08-1.53-1.08l-.4.4h-.9c-.3-.06-.58-.42-.85-1.08,0-.72.36-1.3,1.08-1.75l.22.22v-.22l.85.45.22-.22v-.22l-.22-.22.45-.85-.22-.22.22-.22h-.45l-.18.22h-.22l-.67-.22v.22l-.45.45v-.22l-1.3.45h-1.98v.4h-1.08c-.57,0-.85-1.09-.85-3.28l1.08.67h.67v-.45l-.22-1.08.63-.67h-.22l-.85.67-.45-.9.22-.18-.85-.45c.09.87.22,1.3.4,1.3l-.18.67c-.45,0-.67-1.6-.67-4.81,0-3.5.22-5.26.67-5.26l-.22-.22v-.22c.39-4.46,2.28-9.4,5.66-14.82,6.35-7.58,14.06-11.37,23.13-11.37ZM1.08,85.55h.22l.9.22v.18l-.67.67h-.22l-.22-1.08ZM2.83,88.15l-.22.22v.22l2.2,1.3v-.45c0-.51-.22-.94-.67-1.3l-.22.22h-.18l-.9-.22ZM3.05,73.73v.45l.67.22v-.22l-.67-.45ZM3.5,79.44v.4h.85l-.45-.4h-.4ZM3.73,76.56v.67l.63-.22v-.45l-.22.22h-.22l-.18-.22ZM7.86,74.18v.22l.22.63c-.48.36-1.14.58-1.98.67,0-.36-.29-.58-.85-.67l-.22.22v.22c1.17,0,1.75.73,1.75,2.2h-.22c-.3,0-.45.21-.45.63-1.17.51-1.75.88-1.75,1.12h.22c1.32-.3,1.98-.75,1.98-1.35l1.3-.18v.18l.22-.18h.45l-.22.18v.22l.22.22.18-.22h.22l.45.45-.22.22h1.08v-.22l-.18-.67h.4v.45h.67l-.22-.22v-.4h.22l.85.63.67-.22-.22-.22v-.18l.22-1.12h-1.3v-.4h-.22v.4c-1.02-.21-1.53-.57-1.53-1.08v-.22l-.22.22h-.22c-.51-.33-.87-.84-1.08-1.53h-.22ZM4.58,65.02v.45h.67v-.45h-.67ZM4.58,71.98v.45l.45.45.22-.22v-.67h-.67ZM5.48,80.96v.22l.63-.67h-.22l-.4.45ZM6.33,79.44l-.22.85c.3,0,.45-.22.45-.67v-.18h-.22ZM6.33,96.01v.67h.22l.63-.22-.4-.45h-.45ZM6.56,72.88v.45h.63v-.22l-.63-.22ZM7.86,85.95l-.22.67.22.67h.22l.22-.67.63.22v-.67l-1.08-.22ZM7.64,96.46v.63l.22.22h.22v-.22l-.22-.63h-.22ZM8.71,83.57l-.63-.22h-.22v.22l1.53.85h.22l-.22-1.08.45-.45h-.22l-.9.67ZM8.94,92.1l.9.18.4-.63h-.85l-.45.45ZM11.77,84.65c0,.45-.13.67-.4.67l-.9-.22v.22l-.22-.22h-.18l-.9,1.3.22.9h.22c0-.6.36-1.05,1.08-1.35h.67v.22h-.45l.67,1.12h1.08l.22-.22h.22l.85.85h.22c-.9-1.44-1.56-2.16-1.98-2.16v-1.12h-.45ZM9.16,98.21l.45.4.22-.18v.18l.63-.18-.22-.67h-.63l-.45.45ZM9.84,94.71l.22.85h.4l.45-.4v-.45l-.22.22-.22-.22h-.63ZM10.24,69.82v.4h.67v-.4h-.67ZM10.69,55.4v.63c.63-.33.99-.69,1.08-1.08h-.18l-.9.45ZM11.37,99.74h.22l.4-.45v-.22l-.63.67ZM11.59,82.72l.18.63.9-.85h-.45l-.63.22ZM12.22,98.62l.45.45h.45l.22-.85h-.22l-.9.4ZM12.67,102.12v.22c.3.72.81,1.08,1.53,1.08h1.08v-.22l-1.08-.18-.67.18.22-.18v-.45l-1.08-.45ZM12.89,82.27l.22.22v.22l1.08-.22v-.45h-.22l-1.08.22ZM13.52,99.07v.67h.45v-.67h-.45ZM14.64,69.37c0,.3-.22.45-.67.45v.4h.22l.85-.85h-.4ZM14.2,99.97l.22.18-.22.22v.22l.45.45.63-.22v.45h.22c0-.3.3-.45.9-.45l.4-.45v-.4l-.63.4-1.3-.4h-.67ZM14.42,96.01v.9h.22l.22-.9h-.45ZM15.72,104.1l-.22.67h.22l.85-.45v-.22h-.4l-.22-.22-.22.22ZM15.72,89.23v.22h.67v-.4l-.67.18ZM16.8,102.35l-.4.67h.4l.22-.67h-.22ZM16.58,93.18l.22.22v.22l-.22.63.22.22h.45c0-.75-.22-1.18-.67-1.3ZM18.33,94.26l-1.08,1.08,1.98-.63v-.22l-.9-.22ZM17.7,90.76v.45l.4.45.45-.45-.63-.45h-.22ZM17.7,96.69v.85c0,.72.36,1.23,1.08,1.53h.45v-.85l-1.53-1.53ZM20.3,103.65v.22l.22.22h.67v-.22l-.9-.22ZM21.61,104.77l-.22.18v.22h.45l-.22.22v.22h.9v-.67l-.9-.18ZM22.73,103.65l.4,1.12h.9v-.45c-.3,0-.45-.22-.45-.67h-.85ZM24.26,96.01l.18.22v.22h-.4v.45l.63-.45.22.22v-.22l-.45-.45h-.18ZM27.94,106.7c.87,0,1.3.38,1.3,1.12l.22.63h-.22l-1.75.22v-.22l-.63-.85-.22.22h-.22v-.45l1.53-.67ZM29.24,104.55h.22v1.75l-.22.18v.22l-.63-.22c.18-1.29.39-1.93.63-1.93ZM32.3,44.26c6.71,0,13.19,2.55,19.45,7.64,3.89,4.1,6.15,7.53,6.78,10.29l-.45.63v.45l.45.45v-1.35c.39,0,.82,1.24,1.3,3.73h-.45v-.63c-.3,0-.45.43-.45,1.3-.27,0-.4.36-.4,1.08l-.22.22h-3.05l-1.53-1.3h-.22l.22.22v1.08l-1.08.45h-1.12v-.45h-.45v.63l.67.9h-.22l-.22-.22h-.22v1.08l-2.83-.85v.45c0,.42.88.63,2.65.63,0,.24.43.54,1.3.9l.63-.22.22.22v-.22l.22.22h.22l.85-.22.9.22.45-.67c-.45,0-.67-.36-.67-1.08l-.85.22-.67-.22v-.45c0-.81.36-1.32,1.08-1.53l.45,1.08-.22.22v.45h.22c0-.39.51-.69,1.53-.9l.22.22v.67c-.39,0-.61.36-.67,1.08h.45v-.45c.45,0,.67-.28.67-.85l.18-.22v-.22h-.4v-.22h.4l.22.22h.22l2.2-1.08.45.67-.22.63c.42,0,.63.81.63,2.43l-.63,1.08-.22-.22h-.45c0,.39-.36.61-1.08.67l-.22.22v.4l1.53-.63-.22.22v.4h1.08l.45.45-.22.22v.22l.45.4-.22.22.22,1.12-.22,1.3c-.3,0-.45-.3-.45-.9h-.85v.9l-.22,1.08-.85-.22-.67.22.22.67.85-.45v.45h.67l.22-.22h.22v.22l-.22.63h1.08c0,5.81-2.47,12.07-7.41,18.78-6.44,6.56-13.64,9.84-21.61,9.84v-.45c.42,0,.63-.13.63-.4h-.85v-3.05h.4v-1.35h.67l.67.45h.18l.9-.45-1.3-1.75v-.85c0-1.56.58-2.43,1.75-2.61l-.22-.22.22-.22v-.85l-1.12.18v-.63l1.98-.45v.22l-.22.22v.22h.45c0-.6,1.17-1.48,3.5-2.65,1.74-1.44,2.61-2.38,2.61-2.83h1.53v-.22l-.22-.22v-.18l-.22.18h-.4v-.18c0-.24.64-.75,1.93-1.53v-.67l-.18-1.08.18-.22h.45l.22.22.22-.22h.22c.42,0,.63.21.63.63h.22v-.85h-1.08c-.3,0-.45-.22-.45-.67l.22-1.53h.22l.63.45h.22l-.22-.22c.09-.72.31-1.08.67-1.08v-.45c-.57,0-.85-.15-.85-.45v-1.3l.18-.22v-.18l.22.18h.45c0-.27.22-.4.67-.4l.18-1.12h-.4v.45l-.45.45h-.67v-.22c.09-1.62.24-2.43.45-2.43h.45v-.18l-.67-1.12v-1.08h.45v-.22l.22.22h.22c.42,0,.63-.22.63-.67h.22v.45h2.2l.85-.22,2.65.67c.63-.72,1.2-1.08,1.71-1.08l.45.4h.22v-.22c-.45,0-.67-.13-.67-.4h.22l-.63-.9c-.15.39-.96.76-2.43,1.12l-.4-.45h-.45l-.22.22h-.22l-.22-.22v-.22l.45-1.3-1.3.45h-.67l-.22-.22-.22.22h-.18c-.21-.3-1.09-.45-2.65-.45l-.63-2.83c.27,0,.4-.3.4-.9l1.12-.22-2.43-2.16.22-.22v-.22l-2.61-4.36c-2.16-2.63-4.93-4.46-8.31-5.48-1.74-.21-2.61-.49-2.61-.85v-10.92l.4-.45ZM32.3,98.44h.45l-.22,1.08h-.22l-.4-.45v-.22l.4-.4ZM31.89,101.04h.4v1.75l-.4.4v-2.16ZM35.17,105.4l-.22.22v.45l.63.22v-.45l-.4-.45ZM35.17,100.37v.22l.63.22v-.45h-.63ZM40.16,103.02v.18h.45l.22-.63h-.22l-.45.45ZM44.56,92.73l.22.67h.18l.45-.45v-.45l-.45-.4c-.27,0-.4.21-.4.63ZM45.87,90.98l.22.67h.22l.4-.45v-.45l-.4-.4c-.3,0-.45.21-.45.63ZM46.72,73.51l1.53.45-.22.22v.45l.22.22v.18l-.22.22c-1.02,0-1.53-.51-1.53-1.53l.22-.22ZM47.17,91.88v.22l.22.18h.63v-.18l-.85-.22ZM47.39,83.34v.22l.22.67h.63l-.4-.9h-.45ZM47.39,88.15l.45.45h.18l-.4-.45h-.22ZM47.62,51.45v.22c.27,0,.4.22.4.67h.45v-.9h-.85ZM48.47,77.68c0,.42-.15.63-.45.63l-.18-.22h-.22v.22c0,.36.79.66,2.38.9,0,.42.15.63.45.63l.22-.22v-.18c-.45,0-.67-.3-.67-.9l-.22.22h-.22c-.39,0-.6-.36-.63-1.08h-.45ZM48.7,85.1l-.22.85h.67l.85-.4-.22-.22v-.22l-.22.22h-.4l-.22-.22h-.22ZM50,90.76l.22.22-.22.22h.67l-.22-.85-.45.4ZM51.53,80.07l-.22-.22h-.22l-.18.22v.45l.18-.22h.67l.67.45v-1.12h-.22l-.67.45ZM51.08,80.74v.22l.22.63-.22.22h.67v-.22l-.45-.85h-.22ZM51.97,71.75v.67h.22l.22-.67h-.45ZM52.83,70.23v.22l-.4.45v-.22l.4-.45ZM53.28,81.37l.22.67h.67v-.45l-.9-.22ZM56.33,63.71c0,.42-.36.63-1.08.63v.22h.85l1.3-.45v-.4h-.4l-.22.18h-.22l-.22-.18ZM55.48,79.62v.22h1.08l-.45-.4-.63.18ZM55.88,73.51l.22.22v.22l.22-.22h.9c.27,0,.4.3.4.9l.22.22h.22l.22-.22-.22-1.3h-1.08l-1.12.18ZM58.76,75.03l-.22,1.12.63.22.67-.22.22.22v.18l.63-.18v-.9h-.18c0,.45-.15.67-.45.67-.6,0-.9-.37-.9-1.12h-.4ZM59.39,81.37l-.22.67h.67v-.67h-.45Z"/>
    <path class="cls-2" d="M63.74,48.84h.45l7.77,13.25c-.3,0-.45.22-.45.67-.93,0-1.39.52-1.39,1.57l-2.02-.22v.22c0,.36-.84.75-2.52,1.17l-.45.45h-.27l-.9-1.12h-.22v-15.99ZM68.55,65.06c.69.3,1.06.6,1.12.9l-.45,1.17c.3,0,.45-.24.45-.72h1.39l.67-.45h.22l.45.45-.45.72v.22h.45c.78-.33,1.17-.64,1.17-.94h.67c.9.63,1.35,1.39,1.35,2.29v.22c-1.68.15-2.67.38-2.96.67h-2.52c0,.33-.38.49-1.12.49l-.67.67-1.17-.22h-.67l-1.62.9h-.67l-.45-.45v-2.07l.22-.22-.22-.22v-1.12h.22l.45.45-.22.22v.22l1.62.22c0-.3.52-.52,1.57-.67l-.22-1.17h1.39v-.22l-.45-1.12h.22l.22-.22ZM74.48,70.99h.9l.22-.22h.27c.15,1.38.6,2.07,1.35,2.07l.22-.22.45,1.35v1.62h-.9v.45h.9l.45,32.43-.22.22h-12.31l-.94-.22-.9.22-.22-.22v-34.72c.36-.93.97-1.39,1.84-1.39.72,0,1.24-.15,1.57-.45h.45c1.38.63,2.07,1.09,2.07,1.39l.67-.22c.63.15.94.67.94,1.57h.22l.45-.45v-.45c-.6-.57-.9-1.03-.9-1.39h-1.17l-1.12-.22v-.45l.67-.67h2.96v.45h.94v-.45l-.27-.22v-.22l1.39-.67v1.12ZM63.97,44.26h13.7c2.28,3.23,4.49,6.96,6.65,11.19h-.49c1.5,1.44,2.88,3.34,4.13,5.71v.45l-.45.72c.6.06.9.29.9.67l-.22.22c1.38.15,2.07.91,2.07,2.29l-.45.45h-2.52v.45h-1.62v.45h-1.35l-2.74.72v-.22l-1.84.45-.45-.45h-.67c0,.45-.17.67-.49.67h-.22l-1.8-3.19v-.22h.45c0,.45.45.67,1.35.67l.94-.45.45.45,1.12-.22v-.45c-.81,0-1.5-.39-2.07-1.17l-1.12-.22v-.45h-.67v.45h-.94c-.45,0-.67-.45-.67-1.35-.66,0-1.8-1.6-3.41-4.81-4.58-7.31-7.1-11.57-7.55-12.8ZM66.04,75.57c.6.66.9,1.26.9,1.8h.22c.57-.6,1.03-.9,1.39-.9v-.45c-.45,0-.67-.15-.67-.45h-1.84ZM66.04,82.85v.49l.45.45h.22l-.22-.22v-.22l.22-.27v-.22h-.67ZM68.55,78.31l-.22.22v.22h.9v-.22l-.67-.22ZM72.41,76.02c0,.69-.76,1.06-2.29,1.12v1.17h.22c.6-.63,1.21-.94,1.84-.94,0-.6.22-.9.67-.9v-.45h-.45ZM71.07,80.11h.9l.45-.45v-.22c-.9.15-1.35.38-1.35.67ZM72.86,64.61h.49l.67.9-.67.45h-.49l-.67-.67.67-.67ZM72.86,77.86v.45h1.39v-.45h-1.39ZM73.09,47.23v.22l.49.45v-.22l-.49-.45ZM74.03,72.11l-.22,1.17v.67h.22c.45-.15.67-.6.67-1.35l-.67-.49ZM76.32,70.54h.45c.6.24.9.76.9,1.57h-.22c-.75-.3-1.12-.82-1.12-1.57ZM76.32,77.37v.22l.45.49h.22l-.22-.72h-.45ZM91.15,67.35h.22c1.08,1.02,1.62,1.93,1.62,2.74-.39,0-.61.3-.67.9l.67.45h.22l-.22-.22v-.67h.67l22.37,37.69v.45h-4.54l-1.39-.45-.45.45h-6.83c-.72-.57-5.97-9.18-15.77-25.83-3.71-5.81-5.71-9.15-5.97-10.02h.49v-.22h-.49l-.22.22c-1.05-1.65-1.57-2.72-1.57-3.23h1.8v.49h1.17l1.12.22.22-.94,1.17.22h1.35l1.39-.9.67.45h.22c0-.75.69-1.27,2.07-1.57l.67.22v-.45ZM82.03,60.93v1.84c-.63.06-.94.29-.94.67v.22h1.39c0,.93.3,1.39.9,1.39v-.72l1.17.27h.45l1.35-.94-.22-.22v-.22c0-.39.31-.61.94-.67v-.22h-2.52c-1.38-.42-2.07-.88-2.07-1.39h-.45ZM82.25,58.19l-.22.22v.72l.45.45.45-.45v-.27l-.67-.67ZM85.44,62.77v.9l-.45.45h-.22l-.45-.45,1.12-.9ZM86.61,71.44v.45h.67v-.45h-.67ZM88.63,73.06v.22l.94.22h.22v-.22l-.45-.45-.72.22ZM89.35,73.73v.67l.45-.45v-.22h-.45ZM91.82,75.08v.27h.94v-.27h-.94ZM92.99,75.08h.67l.67-1.12h-.22c-.39,0-.76.38-1.12,1.12ZM93.89,86.53v.45h.22l.45-.45h-.67ZM95.73,81.5h.67v-.45h-.22l-.45.45ZM96.18,77.86l-.22.67v.22h.22l.45-.45v-.45h-.45ZM103.28,44.26l.22.22.22-.22h2.07l.9.22,1.62-.22h7.5l.49.45v1.62h-1.17v.45c.78,0,1.17.15,1.17.45v16.22c0,.3-.31.45-.94.45v.22c.63,0,.94.17.94.49v39.04h-.49l-6.83-12.08h.45l-.45-.49-.22.27c-4.28-6.71-6.42-10.6-6.42-11.68l-.22-6.83v-6.42l.45-.67-.45-.45v-2.07l1.84-.45v-1.17l.45-.67c-.93,0-1.77-.45-2.52-1.35v-8.94l-.22-6.15.22-.22h1.39ZM101.66,106.61l.45.45h1.17v-.22l-1.17-.22h-.45ZM102.11,60.25c.63.21,1.09.58,1.39,1.12v.49l-.45.45h-.72l-.45-.45v-1.17l.22-.22v-.22ZM103.72,68.7l-.22.22v.22l1.12.22v-.45l-.9-.22ZM105.79,51.36v.22l.22.67.67-.67-.9-.22ZM106.91,67.8v.45h.22l.45-.45h-.67ZM107.81,47.23l-.22.22v.22h.72l-.49-.45ZM107.81,50.42v.45h1.17v-.45h-1.17ZM108.98,57.74l.45.45v-.9l-.45.45ZM110.82,105.27l-.27.22v.22h.72l-.45-.45ZM110.82,45.88v.9l.45-.45v-.45h-.45ZM111.5,49.97v.22h.45l.9-.67h-.45l-.9.45ZM112.62,84.24l.45.45h.22v-.45h-.67ZM113.07,55.45v.22h.49c0,.48.15.72.45.72h.67v-.27l-1.39-.67h-.22ZM113.79,61.38v.22l1.12.27h.22v-.27l-1.12-.22h-.22Z"/>
    <path class="cls-2" d="M133.46,86.94l.22.18v.22l-.45.67v.22c.6,0,.9.72.9,2.16.63,1.5,1.35,2.67,2.16,3.5v.18l-.22-.18h-.18v.4h.18l.22-.22c2.75,1.59,4.79,2.47,6.11,2.65v.63h.45v-.45h1.3c.87.09,1.3.31,1.3.67v1.75c0,.27-.22.4-.67.4l-.22-.18h-.4v.18c.57.09.85.46.85,1.12l-.67,1.08c.45,0,.67.15.67.45v.4l-.22,1.08-.22-.18h-.22l-.18.18v.9c.63,0,1.06.29,1.3.85v1.3c0,.3-.3.45-.9.45l.67.85-.45.45h-1.08c0-.33-.51-.91-1.53-1.75v-.4h-1.3v.18h.63v1.12h-1.71c-.75-1.17-1.26-1.75-1.53-1.75l-.22.22v.22c.42,0,.63.43.63,1.3h-.18l-.9.18c-2.91-.33-5.74-1.33-8.49-3.01.24-1.02.61-1.53,1.12-1.53v-.67c-.78.12-1.44.48-1.98,1.08h-.85c-3.26-2.37-5.53-5.69-6.78-9.97l-.4-2.65.4-.4v-.22l-.18.22h-.22c-.3-.66-.45-1.6-.45-2.83l.45-.45h.22l.18.22.22-.22h.67l1.3.22,1.3-.45h3.05v.67h.22c.06-.6.27-.9.63-.9h3.91l1.53-.18ZM120.62,88.87v1.53h.22c0-.3.22-.45.67-.45v-.18l-.45-.9h-.45ZM145.23,44.26l.22.22v10.65c0,.33-1.75.63-5.26.9.15-.54.66-.91,1.53-1.12l.9.22h.4v-.4h-2.38v.4h-1.53l.22,1.08c-2.19,1.56-3.28,2.8-3.28,3.73l-.18,1.08v1.3c0,2.96,3.7,5.08,11.1,6.33l.18.18-.18.22v.45l.85-.67c7.52,1.62,12.88,3.29,16.08,5.03l3.95,3.28v.18h-.67v-.4c-.57,0-.85-.3-.85-.9h-.9l1.53,1.3.22,1.3h-.45v.45h.22l.67-.22-.67,1.53h1.98c0,.45.21.67.63.67,0,.42.3.99.9,1.71.72.27,1.08.93,1.08,1.98l-.67.45h-2.16c0,.27-.36.55-1.08.85h-1.53v.45c.69,0,1.2.15,1.53.45,0-.3.28-.45.85-.45l.67-.67c.18.75.39,1.12.63,1.12l.22-.22.22.22c.03-1.02.46-1.53,1.3-1.53l.22.18v1.53l-.22.22c0,.3-.43.45-1.3.45,0,.72-.15,1.08-.45,1.08-.57,0-.85.36-.85,1.08h-1.75v.22l.22,1.08h.22v-.4l-.22-.22,1.75-.67h1.08v.45h.45l.85-.45v-1.3h.45c-.15,2.61-.45,4.72-.9,6.33l-.22-.22h-.4v.22h.4c-.18,1.74-.61,2.61-1.3,2.61l-.63-.22v.45l.85.22c-.33.87-.9,1.74-1.71,2.61l-.22-.22h-.22c0,.93-.43,1.65-1.3,2.16l-.22-.18h-.22l.45-1.53-2.43-1.98h.45v-.22l-.45-.45-1.08.22v-1.93c0-.36.3-.58.9-.67v-.22c0-.33-.58-.54-1.75-.63l.45.63v1.53h-.22l-.67-.22.45.67v.45l-.9.85-.18-.22-.22.22h-.45l-.22-.22h-.22c0-1.02.43-1.53,1.3-1.53v-.22l-1.3-.85h-1.3l.22.22v.22l-.45.4c-1.05,0-1.62-.21-1.71-.63l.22-.22-.45-.45c0-.57.58-.85,1.75-.85l.18-.22v-.22c-.63,0-1.06-.36-1.3-1.08.6-1.02.9-2.32.9-3.91l1.08.22c.3-.75.58-1.12.85-1.12v-.18l-.4-.45h-.67l-.63.45h-.22l-1.53-1.98v-.22h.22l1.53.22c0-.45.28-.67.85-.67v-.18l.22.18h.85l.45-.4v-.45c-.78,0-1.36-.28-1.75-.85h-.63l-.67.4h-3.28l-.63-.4-.85.22c-1.02-.36-1.53-.66-1.53-.9v-.22c.33,0,.76-.28,1.3-.85-.72-.66-1.66-1.02-2.83-1.08v.22l-1.3-.45-.22.22-2.2-2.61c-.3.87-.87,1.3-1.71,1.3,0,.48-.51.84-1.53,1.08v.45h-.9c-13.33-2.25-19.99-8.28-19.99-18.1v-.85c0-10.09,6.53-16.04,19.59-17.83l3.91-.22ZM122.82,92.55h.63v-.4h-.18l-.45.4ZM123.27,90.4h1.08v-.45h-.67l-.4.45ZM123.67,95.61v.22h.45v-.63l-.45.4ZM125.2,89.09l-.22.22v.45h.67v-.22l-.45-.45ZM125.42,52.53l.45.45h.18v-.45h-.63ZM126.28,70.59l.67.67.22-.67-.22-.22-.67.22ZM126.28,90.85v.85h.45v-.85h-.45ZM127.4,96.06l.18,1.3h.45v-.22l-.22-1.08h-.4ZM127.8,74.32l.45.4h.45v-.4h-.9ZM128.25,90.85l.45.4h.63l-.22-.85-.85.45ZM128.48,88.24l.4.4.45-.4v-.45h-.45l-.4.45ZM128.88,101.04v.22h.9l-.22-.22v-.18l-.67.18ZM129.33,70.81v.85l.45.45v-1.3h-.45ZM130.63,94.31v.45l.45.85h.45v-.4l-.45-.9h-.45ZM131.08,52.98v.4c.72,0,1.08.15,1.08.45h.45l-.67-.85h-.85ZM131.31,89.54v.4c.57,0,.85.3.85.9h.67v-.45l-.45-.45h-.22l.22-.18v-.67h-.67l-.4.45ZM131.71,72.97l-.18.22v.22h1.08v-.22l-.9-.22ZM131.71,49.07l.45.4h.22l.45-.4v-.45l-1.12.45ZM131.94,66.23v.22l2.61.45-1.48-.9-1.12.22ZM132.16,105v.18c1.02,0,1.53.45,1.53,1.35h.45v-.45l.22-.22-.22-.22-1.75-.63h-.22ZM133.46,96.06c0,.45-.21.67-.63.67v.4l1.08-1.08h-.45ZM133.69,100.86h.22l.22-.22h.22l.63.63h.22v-.22l-.22-.63h-.85l-.45.45ZM133.91,102.57l.45.45h.18l-.4-.45h-.22ZM135.21,97.81c0,.27.28.4.85.4l-.18.22v.22l.85.45v-.22l-.67-1.08h-.85ZM135.66,103.87l-.22.22v.67l.22-.22h.22l.85.22-1.08-.9ZM136.29,67.76v.45h.67v-.45h-.67ZM137.82,72.97l-.22.22v.22h.9v-.22l-.67-.22ZM138.04,101.27v.67l.85.63h.45v-.85h-.22l-.22.22c-.42,0-.63-.22-.63-.67h-.22ZM139.57,107.83v.18l-.22.22v.22l-.67-.22v-.22l.9-.18ZM139.8,105.18v.9h.4v-.45l-.4-.45ZM140.43,101.04v.22l.45.45h.22l.63-.22v-.22l-1.08-.22h-.22ZM140.43,108.23h.9v.45h-.22l-.67-.22v-.22ZM142.85,77.77l-1.75-.45.85,1.3h.9c0-.36.28-.57.85-.63v-.45l.63-.4-.18-.67-1.3,1.3ZM144.56,80.83h1.53l.67.63v1.12c-2.76-.51-4.13-.94-4.13-1.3h1.93v-.45ZM142.85,104.77v.85l.4.45.22-.22h.45v.45h.22v-.45l-1.3-1.08ZM143.26,98.89v.67h.67v-.22l-.45-.45h-.22ZM143.93,75.17v1.08h.22v-1.08h-.22ZM146.31,69.96v.22l.22,1.08c-.3,0-.58.43-.85,1.3h-1.12l.22.85-.22.67c1.47-1.08,2.2-2.17,2.2-3.28v-.85h-.45ZM145.68,79.53h.63l.67.63v.67h-.22l-1.08-.45v-.85ZM147.84,44.26c6.26,0,11.84,1.81,16.76,5.44,2.34,2.4,3.5,4,3.5,4.81.75,0,1.68,2.83,2.79,8.49v.63l-7.37.9v-.22l-6.11.63c-.57-3.53-1.59-5.85-3.05-6.96-1.2-1.02-3.44-1.81-6.74-2.38v-.45l.22-1.3-.22-2.16v-6.96l.22-.22v-.22ZM153.5,95.83c.9,0,1.77.36,2.61,1.08,1.44,0,2.16.51,2.16,1.53l.67.22.22-.22.45.67-.22.22v.22c.87.69,1.3,1.26,1.3,1.71h.4c0-.6.58-.96,1.75-1.08l.22.22-.22.22v.4l.22.22c-.06.75-.27,1.12-.63,1.12v.85c0,.72-.38,1.08-1.12,1.08,0,.33.37.55,1.12.67v-.22l.18-.22h.22v-1.53h.45v-.22l-.22-.22c.09-.72.6-1.08,1.53-1.08.24,1.02.52,1.53.85,1.53v.22c-3,2.31-5.32,3.46-6.96,3.46v-.4l-2.38.4v-.18l.22-.67h-.22l-.63.22v.22l.4.63v.45c0,.63-2.68,1.06-8.04,1.3l-.22-.22v-2.61l.22-.22v-.22l1.08.22h.45c.3,0,.45-.36.45-1.08l.63-.67v-.4h-.22l-.22.22h-.18c0-.72-.3-1.6-.9-2.65l.22-.63-1.53-1.3v-1.3c0-.33.36-.55,1.08-.67l1.12.22c0-.57.72-.85,2.16-.85v1.3h-2.16l.63,1.3h.22v-.45h1.75l-.22-.22v-.22h.45l.63.45.22-.22.22,1.3h.4v-.63l-.18-1.08.18-.22c-.42,0-.7-.36-.85-1.08h-.63v-.22l.85-.67ZM147.61,100.19h.45l.22.67-.22.63h-.45v-1.3ZM148.29,101.94l1.08.22v1.71h-1.3l-.45-.4v-1.08c0-.3.22-.45.67-.45ZM148.92,107.83v.18l1.53.22-.22-.63-1.3.22ZM150.22,106.3v1.08l1.08-.45c0-.33-.36-.54-1.08-.63ZM150.44,74.5h.85v-.4h-.4l-.45.4ZM151.12,78.22l-.22.22v.18h.63l-.4-.4ZM152.82,76.02l-.4.45v.45h.63v-.9h-.22ZM152.64,103.02c.21.57.42.85.63.85h.45v-.18l-.67-.67h-.4ZM153.27,46.01v.22l.67.18v-.4h-.67ZM155.25,97.58l.22.63.4-.4v-.67h-.22l-.4.45ZM156.1,99.56v.4h1.08l-.4-.4h-.67ZM156.55,81.68l-.22.67h.45l.4-.45-.22-.22h-.4ZM157.18,102.39v1.08l1.53-.22v-.22c-.72,0-1.08-.21-1.08-.63h-.45ZM162.44,74.72l.4,1.08-.85.45-.22-.22h-.67l-.4.45v.22l.4.63v.9l-.4.85h-1.08l-.67-.45v.9h-1.53v.22l1.08.4.67-.63h.22l.63.45c.15-.6.58-.9,1.3-.9v1.08h-.63v.67l.85.85.45-.4v-1.53l.45-.45h.18l.67.22v-1.53h-1.53v-.22l.22-1.08h.22l1.08.22c0-.6.15-.9.45-.9-.12-.48-.55-.91-1.3-1.3ZM157.86,47.54l.85-.67h-.22l-.63.67ZM157.86,91.7v.22c0,.42.51.63,1.53.63,0,.6.13.9.4.9h.45l.45-.45-2.43-1.3h-.4ZM158.71,105.63h1.3v-.45l-.4-.4h-.22l-.67.85ZM159.61,102.17c0,.42-.22.63-.67.63v.22h.85l.22-.85h-.4ZM159.61,90.4l.4.45h.22l-.45-.45h-.18ZM164.37,86.49v.45h-1.08c-.27.24-1.14.45-2.61.63l-.22-.22v.45h1.98c0,.87.13,1.3.4,1.3h.45l-.45-.67v-.18l.45-.45h1.53l.63.45v-.9l-.18-.22v-.18l.4-.45h-1.3ZM160.69,54.73v.4h.85v-.4h-.85ZM162.21,81.91c0,.72-.38,1.08-1.12,1.08v.67h.22l1.98-1.53-1.08-.22ZM161.09,93.9v.4l.9.45h.22v-.45l-1.12-.4ZM163.52,52.53v.45h-1.3v.4h1.08l1.08-.18.45.63.63-.22v-.63l-.4-.45h-1.53ZM162.44,92.55v.22c0,.27.43.64,1.3,1.12v-.9c-.75,0-1.12-.15-1.12-.45h-.18ZM163.07,90.85v.4h1.08v-1.3c-.27,0-.4.3-.4.9h-.67ZM163.74,77.55l-.22.67h.63v-.67h-.4ZM163.52,99.74h.85v.9l-.63.22-.22-.22v-.9ZM163.92,79.98v.4l.9.22v-.45l-.9-.18ZM163.92,83.88v.4h1.12l-.45-.4h-.67ZM164.14,91.7v.85h.45v-.85h-.45ZM164.14,97.81v.22h.45v.18l1.08-.85c.72,0,1.08-.36,1.08-1.08h.22c0-.45-.29-.67-.85-.67v-.4h-.22c-.3,0-.45.72-.45,2.16l-1.3.45ZM164.82,94.75v.22l.63.22v-.45h-.63ZM165.04,79.08v.45l1.3-.22v-.22h-1.3ZM165.27,80.83l.4.45h.22l-.45-.45h-.18ZM165.9,88.65l.45.9.63-.9h-1.08ZM166.12,92.15v.4l.45.45h.18v-.85h-.63ZM166.12,99.56v.4h.63v-.4h-.63ZM166.35,82.58v.4l.85.22h.67v-.22c-.69,0-1.2-.13-1.53-.4ZM166.75,93.23v.85h.22l.45-.4-.67-.45ZM168.1,77.77h.18c.6.3.9.73.9,1.3h-1.08l-.45-.45v-.4l.45-.45ZM167.87,87.79v.45h.22l.4-.45h-.63ZM168.73,57.74v1.12l.67.4v-.22l-.45-1.3h-.22Z"/>
    <path class="cls-2" d="M180.5,44.26h7.77l.45.45v6.15h-.45c0-.9-.15-1.35-.45-1.35l-.45.45v.45c0,.3.45.61,1.35.94v7.05l-1.57-.22h-.22v.22l1.8.72v2.74h-.67v.45c.45,0,.67.15.67.45v10.96c-.6,0-.9.54-.9,1.62l.22.22-.67.45h-.67c-.3,0-.45-.39-.45-1.17h-.27c0,.78-.22,1.17-.67,1.17h-1.12l-.45-.45v-.94c.45,0,.67-.15.67-.45l-.22-1.12-.22.22h-.22l.22.22v.67l-.49.45h-.67c-.75-.27-1.12-.94-1.12-2.02v-.27l.67-.22-.45-1.35c.6,0,.9-.39.9-1.17h1.84v-.9h1.35l.27-.22h.22c0-.45-.31-.67-.94-.67l-.22-1.39-.22.22h-.22l.22.22v.49l-.67.67-.94.22v.67l-.22-.22h-.45l-.45,1.39-.9-.49v.49h-2.29v-.94l.22-1.12c-.45,0-.67-.15-.67-.45v-.94l.67-.22c.27,1.08.88,1.62,1.84,1.62v-.22c-.78-.45-1.17-.99-1.17-1.62l.45-.45.22.22h1.17v-1.35c0-.33.22-.49.67-.49v-.45c-.9,0-1.35-.45-1.35-1.35l-.22.22h-.27l-2.02-.45-.22.22v-.45c.45,0,.67-.16.67-.49v-.67h-.45v.45l-1.17-.22h-.45v.22h.45v.45l-.9.27v-1.17h.67v-.9l-.22-.22v-.22c.6-.27.9-.73.9-1.39h.72l.67.67-.45.49.45,1.35h.45v-.9h.22l.45.45-.22.22v.22h.45l1.39-.45v-.45c-.87,0-1.86-.54-2.96-1.62v-1.84h-.45c0,.36-.31.82-.94,1.39l-.22-.22h-1.12l.45,1.57c0,.48-.61,1.09-1.84,1.84v.22h-.9v-1.8l.45-1.62h-.45v-.9h.45v.67c1.14,0,1.75-.3,1.84-.9v-.27h-.22v.49c-1.23-.15-1.84-.69-1.84-1.62l.9-.67h1.39l-.22,1.12v.45h.22c.03-.6.18-.9.45-.9l-.45-2.07.45-.45v-.22c-.45,0-.67-.15-.67-.45l-.22.22h-.22l-.72-.67v-.22c.78,0,1.17-.31,1.17-.94l-.22-.22.22-.22.22.22h.67l1.17-.22.22,1.39h.22c.51-.48.96-.72,1.35-.72v-.45l-.9-.22.67-2.07c-.39,0-.69-.45-.9-1.35l.45-.67,1.12.45.27-.22-.49-1.39v-.22ZM177.53,44.26v.67h.22c0-.36.31-.58.94-.67l.45.67v.45c-.45,0-.67.24-.67.72l-.94.45-.9-.22c-.3.69-.6,1.06-.9,1.12l-.22-.22h-.27l-.67.9,1.39.27v1.57c-.63,0-.94.22-.94.67h-.9v-2.52l.22-2.02-.22-1.62.22-.22h3.19ZM174.12,61.6h.45l.22,1.17-.22,1.57-.45-.45v-2.29ZM176.41,62.32c.33,0,.78.76,1.35,2.29h.22l.27-1.17c-.48,0-.72-.15-.72-.45l1.17-.22,1.12.67h.22v.67l-.45.49h-1.12c0,.69-.24,1.21-.72,1.57h.22l-.22.22v.22l.49,1.39-.72.45-.67-.67h-.22l-.45.45c0,1.17.52,1.86,1.57,2.07v.22l.22-.22h.27l.45.45v1.57c-.78,0-1.17.17-1.17.49v.22c.27.6.81.9,1.62.9,0-.9.15-1.35.45-1.35v.22l.67-.22v-.27c0-.3-.22-.45-.67-.45l-.22-.22v-.67l.45-.67c1.23,0,1.84.52,1.84,1.57-.3,0-.45.39-.45,1.17h-.49v.67c2.01,1.41,3.01,2.25,3.01,2.52,0,.3.37.45,1.12.45l.22.22v1.17l-.22,1.12h.22l1.17-.45.22.22v-.45c0-.3-.31-.45-.94-.45,0-.33.39-.49,1.17-.49v-.22l1.35.49v-.27l.22-.9h.45v5.26l-.22,1.62.22,2.02v15.09c0,.54-.3,1.15-.9,1.84v.45l.22-.22h.67v.22l-.22.22.22,1.12v2.96l-1.35,1.39h-1.12l-.72-.45.22-.22v-.72l-1.35.49v.45h-1.39v-.94l.94-.45h.22v-.22l-.45-.45h-.27c0,.39-.45.85-1.35,1.39l-1.39-.27c.18-1.05.42-1.57.72-1.57h1.12c0-.45.39-.67,1.17-.67l.9-1.39v-.22h-.9v-1.35h.9l1.35,1.12h.49v-.22c-.78,0-1.17-.46-1.17-1.39v-.22c.63,0,1.09-.37,1.39-1.12h.22v.45h.45v-.67l-.45-1.84h-.45l-.72,1.39.49.45-2.52,1.8-.72-.22v.22c0,.69-.6,1.15-1.8,1.39-.33-.69-.79-1.06-1.39-1.12v-.72l.45-.45h.22l1.17.22-.22-.22v-.22l.45-1.35h-1.17l.27.22v.45h-.72l-.45-.94v-.22h-.22c0,1.08-.15,1.62-.45,1.62h-.45l-.72-.22v.22l-.45,1.35-.22-.22h-.22l-.45.49c1.08,0,1.62.3,1.62.9l.22,1.12-1.84.22.22.22v1.62c.93,0,1.39.15,1.39.45v1.39h-1.39c-.27,0-.49-.46-.67-1.39-1.08,0-1.62-.15-1.62-.45v-1.62h.45v-.22c-.6,0-.9-.15-.9-.45v-4.09l1.62-1.39h-1.62v-.22l.45-.67v-.67l-.45-.72v-13.48c0-.3.22-.45.67-.45v-.22c-.45,0-.67-.15-.67-.45v-5.03l.45-.45h.22l.22.22h.22v-.22l-1.12-1.17v-8.89h.45l.45.45h-.22l.22.72h.49v-1.17c0-.3.45-.45,1.35-.45v-.22l-1.62-.45v-.49l.27-.22v-.22l-.27-.22c.57-.27.96-.72,1.17-1.35ZM174.57,107.78l.22.22v.22l-.45.45-.22-.22v-.22l.45-.45ZM175.24,91.57v.45h.49l-.22.22v.22l.22.67h-.22l-.72.22v.22h.72c.54-1.05,1.53-1.57,2.96-1.57v-.45l-2.07.45-.45-.45h-.72ZM175.24,69.15l-.22.72.22.22h.27l.45-.72-.22-.22h-.49ZM177.31,77.86h.67v.22l-1.12.22v.45h.45v.9l.22,1.17-1.35.45v-.22l-1.17.22v.22l.22.22v.22l2.29-.45v.45h.45v-1.62h1.17l-.22-.9.22-.67h1.57l.72.67-.22.22v.45l.45.49v-.72h.45l.9.94v.22l-.22.22.22.22v.22l-.22,1.12h.45l.22-1.8.27.22h.45v-.22c-.3,0-.45-.39-.45-1.17-.78-.09-1.17-.31-1.17-.67l.9-1.84h-.67v.49h-.67l-.22-.27h-.22l.22-1.12v-.22h-.45l-.22,1.35-.22-.22h-.27l-.22.72h-1.57v.9h-.94v-.45h.49v-.22l-.22-.72h.22c.36,0,.66-.52.9-1.57h-.9l-1.17,1.84ZM175.73,102.53c0,.45-.24.67-.72.67l.49.45-.27.22v.45h1.17v-.22c-.3-.33-.45-.85-.45-1.57h-.22ZM175.51,83.34v.45l.67.22.22-.22v-1.17h-.22l-.67.72ZM175.96,72.34l-.22.27v.67l.67-.67-.22-.27h-.22ZM175.96,88.83l-.22.22v.22h.22v-.22l.22.22h.45v-.22l-.67-.22ZM176.18,98.17v.22l.45.45h.22v-.45l-.22-.22h-.45ZM176.41,86.08v.45l.67.67,1.17-.45v-.22l-.49-.45-1.12.22-.22-.22ZM176.41,95.43v.9l1.12-1.35-.22-.22-.9.67ZM176.86,89.27v.22l.67.67v-.22l-.67-.67ZM176.86,97.5l.45.45.67-.22v-.22h-1.12ZM176.86,99.56v.22l.45.45.45-.45-.9-.22ZM177.98,52.26v.45h.27l1.12-.22v-.67l-1.39.45ZM179.37,80.83c0,.75-.15,1.12-.45,1.12l-.67-.22c.3.36.45.9.45,1.62h.45c.27,0,.49-.39.67-1.17l-.22-.22.9-.45v.45h.22v-.9l-1.35-.22ZM178.92,90.4v.22h.9v-.45h-.22l-.67.22ZM179.82,103.65v1.17l-.45.45-.45-1.39.22-.22h.67ZM179.6,52.48v.67h.45v-.67h-.45ZM181.44,54.33v.67h.45v-.67h-.45ZM181.66,51.81v.22h.45l.22-.67h-.22l-.45.45ZM181.89,53.38v.22h.45l.45-.45-.22-.22h-.22l-.45.45ZM182.11,48.13h.22l.67-.67h-.22l-.67.67ZM182.11,86.53v.45h.9l.72-.67v-.22h-.27l-1.35.45ZM183.96,48.62v1.12h-.22l-.49-.45.22-.22h-.67v1.35h-.45v.45h.45c0-.54.69-.84,2.07-.9.36-.6.73-.9,1.12-.9v-.45h-2.02ZM185.53,64.61c0,.78-.22,1.23-.67,1.35l-.9-.22-1.62.22v.67l3.19-.67.45-.45v-.45l-.45-.45ZM185.3,56.84h-1.35l-.49-.45-.67.22v.9l1.17.22.22-.22,2.29.67v-.22c0-.3-.24-.45-.72-.45v-.22l.94-.9h1.35l.22-.72-.22-.22h-.45l-2.29,1.39ZM183.73,45.88l-.49.9h.49l.45-.45-.45-.45ZM183.46,60.03l-.22.22v.22l.72.67.22-.22h.45c.75,0,1.12.31,1.12.94h.72v-.27c-.63-.66-1.63-1.18-3.01-1.57ZM183.46,89.27v.45l1.39.22v.22c0,.51-.22,1.05-.67,1.62v.22h.45c.3,0,.45-.31.45-.94l1.39-.22v-1.12l-3.01-.45ZM183.73,84.69v.67h.22l.67-.22v-.45h-.9ZM184.18,61.87v.45c.3,0,.45.3.45.9h.45l-.67-1.12v-.22h-.22ZM185.08,52.26l.22,1.12h-.45v.72h.22l2.07-.94h.22v-.22l-1.12-.22h-.72v-.45h-.45ZM184.85,70.54v.22l.22.67h.9v-.45l-.9-.45h-.22ZM185.08,63.44v.67h.45l-.22-.67h-.22ZM185.3,82.4v.22l.45.45v-.67h-.45ZM185.75,87.66l-.22.94h.45v-.94h-.22ZM186.7,95.88c0,.78-.39,1.17-1.17,1.17v.22l1.84.22v-1.39l-.67-.22ZM185.98,85.37v.22l.27,1.62h.67c0-.75.37-1.12,1.12-1.12-.09-.6-.54-1.06-1.35-1.39l-.72.67ZM186.47,81.05v.9c.21,0,.43-.3.67-.9h-.67ZM186.7,46.33c.3,1.2.6,1.8.9,1.8l.67-.67c-.3,0-.45-.37-.45-1.12l-.22-.22h-.22l-.67.22ZM186.7,61.87h.9l-.45-.49-.45.49ZM186.7,105.94v.22h.22c.9-.15,1.35-.37,1.35-.67v-.22h-.9l-.67.67ZM186.92,70.09l.45.45h.45v-.22l-.22-.72h-.22l-.45.49ZM187.37,91.57l-.22.22v.67c.45,0,.67.3.67.9h.67c-.6-.69-.9-1.21-.9-1.57h.45v-.22h-.67ZM191.41,68.7c.81,0,1.39.69,1.75,2.07l-.22.22h.4l.18-.22.18.22h.22l.58-.67-.99-1.17v-.45h.18l.22.22h.18l.22-.22.9.22h1.57l.94-.22v.22l.18-.22h.58l.58.22.94-.22h3.23l1.53.45.4-.45h.18l.18.22.18-.22h7.64l.36.45v.22h-.18l-.94-.22-.18.22v.22l1.53.49.22-.72h.36v4.13c-.93-.15-1.63-.54-2.11-1.17h-1.17v-.45h-1.12c0-.6-.25-.9-.76-.9v.22c.3,1.38.61,2.07.94,2.07.39,0,.58.22.58.67l.18.22h.18c0-.6.21-.9.63-.9l.54-.45,1.12.9h.4l.22-.22h.18l.18,1.57v3.01l-.18.22.18.22v.22l-.18,1.57-1.35-.22-.4.49h-.36v-.27l-1.35.27h-2.29l-.18-.27-.18.27h-1.35l-.22-.27-.18.27h-1.12l-.76-.27-.76.27h-1.35l-.4-.49-1.48.49h-4.99c-.27,0-.52-.46-.76-1.39h-.18l-.36.67-.63-.22v.22c0,.48-.31.72-.94.72h-1.12v-.49h.94v-.22l-.18-.22.18-.67h.18l.18.22h.22l.18-.22v-1.12c0-.33-.2-.49-.58-.49l-.18.22h-.18l-.58-.22.22.22-.22.27v.22l.22.67-.4,1.12h-.4v-2.74l.18-.22-.18-.22v-4.81h.18c.27,0,.48.61.63,1.84h.18c0-.93.12-1.54.36-1.84v-.22l-1.17-1.35v-.72l.22-.22-.22-.22v-.45ZM193.34,76.92v.22h.18l.99-.22v-.45h-.18l-.99.45ZM193.52,73.73v.45h.4c0,.3.19.45.58.45v1.62h.36l.18-1.17c-.72-.9-1.23-1.35-1.53-1.35ZM194.51,71.44c0,.84.31,1.45.94,1.84l.94-1.62v-.22h-.18c0,.3-.25.45-.76.45v.45h-.22v-.45l-.36-.45h-.36ZM196.8,75.57l.36.67-.94.45c0,.24.25.46.76.67,0-.24.31-.46.94-.67l.18.22-.18-.9-.18.22h-.4v-.67h-.54ZM197.52,69.6v.27l.58-.27v-.45h-.18l-.4.45ZM197.52,72.83v.22l.22.67h.18l.4-.45-.81-.45ZM198.11,70.99v.67h.4v-.22l-.4-.45ZM198.33,69.37v.49h.18l.58-.27v-.45h-.22l-.54.22ZM202.1,78.99v.67h.22l.58-.22v-.22l-.81-.22ZM203.68,72.34v.49h.94v-.49l-.22.27h-.18l-.54-.27ZM204.8,76.02v.9l.58.22.36-1.35-.94.22ZM205.97,70.09c.36,0,.81.3,1.35.9,0-.45.18-.67.54-.67,0,.24.43.61,1.3,1.12v-.45c-.6,0-1.15-.46-1.66-1.39h-1.17l-.36.49ZM207.09,76.7v.45l.58,1.62h.18v-1.39c-.24,0-.36-.22-.36-.67h-.4ZM207.49,78.99c0,.45-.13.67-.4.67v.45l.76-.45v-.67h-.36ZM207.49,73.28l.18.9h.36l.4-.45-.4-.45h-.54ZM207.67,74.63v.94h.18v-.94h-.18ZM211.27,75.08l.18,1.17.63-.67-.4-.49h-.4ZM217.74,44.08h13.75l.45.45v5.26l-.45.49h-.45c0-.39-.39-.85-1.17-1.39v-.45h-.22l-.22.22h-.22l1.39,2.07-1.17.9h.22l2.07-1.12.22.22v28.62h-1.12l-1.17-.72c0,.63-.3.94-.9.94,0,.9-.15,1.35-.45,1.35h-1.17l-.67-.45-.45.72.22.22h1.35v.45c.72,0,1.33.38,1.84,1.12l.45-.67c-.45,0-.67-.15-.67-.45v-1.39h1.39l.45.45v1.17c-.48,0-.72.15-.72.45.63,0,1.17.39,1.62,1.17v2.74l-1.62,1.8h1.17v-.9h.45v10.06c-.3.63-.67.94-1.12.94l.45.45.67-.22v6.38h-.45c0-.75-.15-1.12-.45-1.12l-1.39-.67v.22c0,.24.46.46,1.39.67l.22,1.17v.22l-.67.67h-.49l-1.35-1.17v.27l1.12,1.35-.22.67h.22c.93,0,1.39-.3,1.39-.9h.67v1.84l-.45.45h-1.39l-.67-.45-.45.45h-1.62c-.3,0-.45-.22-.45-.67h-1.39c0,.45-.15.67-.45.67h-1.12l-1.39-1.12h-.22v1.12h-2.74v-.67h-1.39v.22h.49v.45h-.94l-.45-.45v-.22l.45-.72v-1.12h-.45v-2.07l.9-1.35c0-.48-.22-.72-.67-.72l-.22-.22v-1.62l.45-.45h.94l.67.45h.67l-.22-.22-1.12-.45-.49-1.35h-.45v1.12h-.45v-8.71l.45-.45h.22l1.39.45v.27l1.12-.27h1.84c0-.3-.3-.45-.9-.45v-.45h-1.62l-.45-.45.22-.94c-.6,0-.9-.84-.9-2.52l-.27.27h-.67l-.45-.49v-1.8h.67l-.22-.27v-.22l.22-.67-.67-1.12v-36.88l.45-.45ZM217.51,86.53c.78.09,1.17.54,1.17,1.35-.63.33-.94.72-.94,1.17h-.45v-2.07l.22-.22v-.22ZM219.58,91.57c0,.6-.15.9-.45.9l-.72-.22-.22.22v.72c.48,0,.72.22.72.67h.22c0-.78.37-1.17,1.12-1.17h.72c-.3-.54-.76-.91-1.39-1.12ZM218.28,80.25v.27c.48,0,.94.3,1.39.9h.22l.67-.67-.67-1.17h-.22c-.51.45-.97.67-1.39.67ZM218.41,52.44v.45l.49.45.22-.22v-.22l-.45-.45h-.27ZM218.41,76.38l1.17.9h.67c0-.39-.61-.69-1.84-.9ZM219.13,73.46v1.12h.45v-1.12h-.45ZM220.48,98.21h.72l.45-.49h-.67l-.49.49ZM220.48,106.43l.49.67.67-.22-.22-.9-.94.45ZM222.9,82.09l-.22,1.39.67.67v.45l-1.12.22h-.67l-.49,1.17v.22l.49.45h.22l1.12-.22.22,1.12h.22v-1.35c.3,0,.45-.3.45-.9l.27-.27h.22l.9.27v-.27c0-.3-.46-.6-1.39-.9l-.22-1.12v-.27h.49v-.22c-.48,0-.72-.15-.72-.45h-.45ZM221.2,102.8v.45h.22l.45-.45h-.67ZM221.87,44.62l-.45.72h.22l.67-.27-.45-.45ZM221.42,94.08h.45l.45-.45h-.45l-.45.45ZM221.73,75.03v.49l.45.45v-.94h-.45ZM222.77,96.82v.45c-.45,0-.67.15-.67.45h.67l.22-.67v-.22h-.22ZM222.54,105.09l.45.45h.72v-.45h-1.17ZM222.77,91.57v.22c.63,0,.94.3.94.9h.45c0-.69.37-1.29,1.12-1.8-1.68.15-2.52.38-2.52.67ZM222.99,102.57v.22h.49c0-.33.22-.49.67-.49v-.45l-1.17.72ZM223.08,76.83v.9h.72v-.22l-.22-.67h-.49ZM223.49,89.5h.67l.22-.22h.22l-.22-.67-.9.9ZM224.38,46.69v.45l.22.22h.45v-.22l-.45-.45h-.22ZM224.38,50.37v.22l2.74,1.12.22.22h.22l-.22-1.12v-.45l.45-.72h-1.8l-1.62.72ZM224.7,75.3v.22l2.29,1.62v-.9c-.78-.54-1.17-1.23-1.17-2.07-.24,0-.46.38-.67,1.12h-.45ZM225.51,101.85v.22l.49.72v.45c0,.45-.31.67-.94.67v.22h1.17l.22-1.12c-.3-.72-.61-1.11-.94-1.17ZM225.78,89.5v.22c0,.24.52.63,1.57,1.17v-.49c-.45,0-.67-.22-.67-.67l-.22-.22h-.67ZM226,78.49l.45.49c1.35-.45,2.11-.91,2.29-1.39l-.22-.22c-.75.75-1.59,1.12-2.52,1.12ZM227.57,86.98l-.67-.22v.9h.67c0-.6.54-1.05,1.62-1.35v-.45h-.22l-1.39,1.12ZM227.12,91.57v.22h.94l-.27-.22v-.22l-.67.22ZM227.57,94.75v.22h.22c.06-.6.67-.9,1.84-.9v-.9c-1.38.45-2.07.97-2.07,1.57ZM227.57,106.43v.45h.72v-.45h-.72ZM227.8,51.94l.49.49h.45v-.49h-.94ZM228.52,88.6v.45c.6-.24.9-.46.9-.67l-.9.22ZM230.09,70.5v2.07h.49l.22-.67-.49-1.39h-.22ZM230.09,84.02v.45h1.39v-.67l-1.39.22ZM230.58,94.53l-.27.94h.72l.22-.94h-.67ZM231.03,75.98l-.45,1.17v.22l.9-.22-.22-1.17h-.22ZM231.93,79.66v2.29h-.45v-.45l-.22-1.62.22-.22h.45Z"/>
    <path class="cls-2" d="M264.41,44.26l.22.22v10.02l-1.3.9v.22l.67.22c0-.45.13-.67.4-.67h.22v.45l-5.66,1.98-3.73,2.83-1.75-.45c.3.66.6,1.02.9,1.08,0-.42.13-.63.4-.63v.4c-2.49,3-4.07,6.78-4.76,11.37l-.22-.22h-.67c0,.3.22.45.67.45l.22.22v.45c0,1.74-.22,2.61-.67,2.61h-.22l.22.22v.45l-.45.4-.63-.22-.22.22v.22l.22.22h.22l.63-.22c.54.54,1.05,2.8,1.53,6.78l-.63.63h-.22v.22h.4v-.22c.75,0,1.12.66,1.12,1.98l-.22.22c.33.09,1.5,1.92,3.5,5.48,0,.33,1.53,1.48,4.58,3.46l3.68.9v.63l-.22.22v.22l-.18-.22h-.45v.67h-.45v-.22l.22-.22v-.22l-1.3-.22c-.45,1.32-1.26,1.98-2.43,1.98v.45c.45,0,.67.29.67.85v.22l.85-.22-.18-.22v-.18c.72,0,1.08-.15,1.08-.45v-.45l-.22-.63h.22l.85-.22h.45l1.53.4v-.18c.6.21.9.42.9.63l-.22.22v.22h.22l-.22.22v.63l.22.22v.22l-.22.22h-.22l-.45-.45c0,.3-.22.45-.67.45l-.18,1.08h.18l.9-.22c0,.3.28.45.85.45v.45l-.4,1.08h-.22l-.9-.45-.85.67v.45h.45v.85l-.45.45-.9.22v-.67h.45v-.45l-.63-.18c.87-1.08,1.3-1.89,1.3-2.43-.33,0-.84.58-1.53,1.75l.22.22h-.22l-.67-.45h-.22l-.4.45c0,.42.28.63.85.63l-.22.67.22,1.08-.22-.22h-.22v.22c.45,0,.75.51.9,1.53h-.45v.22l-3.91-.85.18-1.12-1.3-.4-.45.4c0-.57-.21-.85-.63-.85h-.22c0,.57-.29.85-.85.85-2.64-.81-5.77-3.05-9.39-6.74l.18-.9-.18-.22h-.22l-.45.45-3.28-4.58.22-.67h-.22c-.54,0-1.48-1.96-2.83-5.88,0-1.32.51-1.98,1.53-1.98l-.22-1.08c.3,0,.45.22.45.67l.22-.22h.18l.22.22v-.67h.67l.45.45-.67.63.22.22v.45l-.22-.22h-.22l-.22,1.53,1.12.22v-.22c.9,0,1.62.43,2.16,1.3l-.22.22.22.22h.45l-.45-1.3h.22l.67.22v-.22l.63.45.22-.22h.45v.45l.45-.45v-.22l-.22-.22v-.22l.22-.22-.22-.22h-.22c0,.6-.22.9-.67.9h-.22c-.66-.72-1.17-1.08-1.53-1.08l-.4.4h-.9c-.3-.06-.58-.42-.85-1.08,0-.72.36-1.3,1.08-1.75l.22.22v-.22l.85.45.22-.22v-.22l-.22-.22.45-.85-.22-.22.22-.22h-.45l-.18.22h-.22l-.67-.22v.22l-.45.45v-.22l-1.3.45h-1.98v.4h-1.08c-.57,0-.85-1.09-.85-3.28l1.08.67h.67v-.45l-.22-1.08.63-.67h-.22l-.85.67-.45-.9.22-.18-.85-.45c.09.87.22,1.3.4,1.3l-.18.67c-.45,0-.67-1.6-.67-4.81,0-3.5.22-5.26.67-5.26l-.22-.22v-.22c.39-4.46,2.28-9.4,5.66-14.82,6.35-7.58,14.06-11.37,23.13-11.37ZM236.24,85.55h.22l.9.22v.18l-.67.67h-.22l-.22-1.08ZM238,88.15l-.22.22v.22l2.2,1.3v-.45c0-.51-.22-.94-.67-1.3l-.22.22h-.18l-.9-.22ZM238.22,73.73v.45l.67.22v-.22l-.67-.45ZM238.67,79.44v.4h.85l-.45-.4h-.4ZM238.89,76.56v.67l.63-.22v-.45l-.22.22h-.22l-.18-.22ZM243.03,74.18v.22l.22.63c-.48.36-1.14.58-1.98.67,0-.36-.29-.58-.85-.67l-.22.22v.22c1.17,0,1.75.73,1.75,2.2h-.22c-.3,0-.45.21-.45.63-1.17.51-1.75.88-1.75,1.12h.22c1.32-.3,1.98-.75,1.98-1.35l1.3-.18v.18l.22-.18h.45l-.22.18v.22l.22.22.18-.22h.22l.45.45-.22.22h1.08v-.22l-.18-.67h.4v.45h.67l-.22-.22v-.4h.22l.85.63.67-.22-.22-.22v-.18l.22-1.12h-1.3v-.4h-.22v.4c-1.02-.21-1.53-.57-1.53-1.08v-.22l-.22.22h-.22c-.51-.33-.87-.84-1.08-1.53h-.22ZM239.75,65.02v.45h.67v-.45h-.67ZM239.75,71.98v.45l.45.45.22-.22v-.67h-.67ZM240.65,80.96v.22l.63-.67h-.22l-.4.45ZM241.5,79.44l-.22.85c.3,0,.45-.22.45-.67v-.18h-.22ZM241.5,96.01v.67h.22l.63-.22-.4-.45h-.45ZM241.72,72.88v.45h.63v-.22l-.63-.22ZM243.03,85.95l-.22.67.22.67h.22l.22-.67.63.22v-.67l-1.08-.22ZM242.8,96.46v.63l.22.22h.22v-.22l-.22-.63h-.22ZM243.88,83.57l-.63-.22h-.22v.22l1.53.85h.22l-.22-1.08.45-.45h-.22l-.9.67ZM244.11,92.1l.9.18.4-.63h-.85l-.45.45ZM246.94,84.65c0,.45-.13.67-.4.67l-.9-.22v.22l-.22-.22h-.18l-.9,1.3.22.9h.22c0-.6.36-1.05,1.08-1.35h.67v.22h-.45l.67,1.12h1.08l.22-.22h.22l.85.85h.22c-.9-1.44-1.56-2.16-1.98-2.16v-1.12h-.45ZM244.33,98.21l.45.4.22-.18v.18l.63-.18-.22-.67h-.63l-.45.45ZM245,94.71l.22.85h.4l.45-.4v-.45l-.22.22-.22-.22h-.63ZM245.41,69.82v.4h.67v-.4h-.67ZM245.86,55.4v.63c.63-.33.99-.69,1.08-1.08h-.18l-.9.45ZM246.53,99.74h.22l.4-.45v-.22l-.63.67ZM246.76,82.72l.18.63.9-.85h-.45l-.63.22ZM247.38,98.62l.45.45h.45l.22-.85h-.22l-.9.4ZM247.83,102.12v.22c.3.72.81,1.08,1.53,1.08h1.08v-.22l-1.08-.18-.67.18.22-.18v-.45l-1.08-.45ZM248.06,82.27l.22.22v.22l1.08-.22v-.45h-.22l-1.08.22ZM248.69,99.07v.67h.45v-.67h-.45ZM249.81,69.37c0,.3-.22.45-.67.45v.4h.22l.85-.85h-.4ZM249.36,99.97l.22.18-.22.22v.22l.45.45.63-.22v.45h.22c0-.3.3-.45.9-.45l.4-.45v-.4l-.63.4-1.3-.4h-.67ZM249.59,96.01v.9h.22l.22-.9h-.45ZM250.89,104.1l-.22.67h.22l.85-.45v-.22h-.4l-.22-.22-.22.22ZM250.89,89.23v.22h.67v-.4l-.67.18ZM251.97,102.35l-.4.67h.4l.22-.67h-.22ZM251.74,93.18l.22.22v.22l-.22.63.22.22h.45c0-.75-.22-1.18-.67-1.3ZM253.49,94.26l-1.08,1.08,1.98-.63v-.22l-.9-.22ZM252.87,90.76v.45l.4.45.45-.45-.63-.45h-.22ZM252.87,96.69v.85c0,.72.36,1.23,1.08,1.53h.45v-.85l-1.53-1.53ZM255.47,103.65v.22l.22.22h.67v-.22l-.9-.22ZM256.77,104.77l-.22.18v.22h.45l-.22.22v.22h.9v-.67l-.9-.18ZM257.9,103.65l.4,1.12h.9v-.45c-.3,0-.45-.22-.45-.67h-.85ZM259.42,96.01l.18.22v.22h-.4v.45l.63-.45.22.22v-.22l-.45-.45h-.18ZM263.11,106.7c.87,0,1.3.38,1.3,1.12l.22.63h-.22l-1.75.22v-.22l-.63-.85-.22.22h-.22v-.45l1.53-.67ZM264.41,104.55h.22v1.75l-.22.18v.22l-.63-.22c.18-1.29.39-1.93.63-1.93ZM267.46,44.26c6.71,0,13.19,2.55,19.45,7.64,3.89,4.1,6.15,7.53,6.78,10.29l-.45.63v.45l.45.45v-1.35c.39,0,.82,1.24,1.3,3.73h-.45v-.63c-.3,0-.45.43-.45,1.3-.27,0-.4.36-.4,1.08l-.22.22h-3.05l-1.53-1.3h-.22l.22.22v1.08l-1.08.45h-1.12v-.45h-.45v.63l.67.9h-.22l-.22-.22h-.22v1.08l-2.83-.85v.45c0,.42.88.63,2.65.63,0,.24.43.54,1.3.9l.63-.22.22.22v-.22l.22.22h.22l.85-.22.9.22.45-.67c-.45,0-.67-.36-.67-1.08l-.85.22-.67-.22v-.45c0-.81.36-1.32,1.08-1.53l.45,1.08-.22.22v.45h.22c0-.39.51-.69,1.53-.9l.22.22v.67c-.39,0-.61.36-.67,1.08h.45v-.45c.45,0,.67-.28.67-.85l.18-.22v-.22h-.4v-.22h.4l.22.22h.22l2.2-1.08.45.67-.22.63c.42,0,.63.81.63,2.43l-.63,1.08-.22-.22h-.45c0,.39-.36.61-1.08.67l-.22.22v.4l1.53-.63-.22.22v.4h1.08l.45.45-.22.22v.22l.45.4-.22.22.22,1.12-.22,1.3c-.3,0-.45-.3-.45-.9h-.85v.9l-.22,1.08-.85-.22-.67.22.22.67.85-.45v.45h.67l.22-.22h.22v.22l-.22.63h1.08c0,5.81-2.47,12.07-7.41,18.78-6.44,6.56-13.64,9.84-21.61,9.84v-.45c.42,0,.63-.13.63-.4h-.85v-3.05h.4v-1.35h.67l.67.45h.18l.9-.45-1.3-1.75v-.85c0-1.56.58-2.43,1.75-2.61l-.22-.22.22-.22v-.85l-1.12.18v-.63l1.98-.45v.22l-.22.22v.22h.45c0-.6,1.17-1.48,3.5-2.65,1.74-1.44,2.61-2.38,2.61-2.83h1.53v-.22l-.22-.22v-.18l-.22.18h-.4v-.18c0-.24.64-.75,1.93-1.53v-.67l-.18-1.08.18-.22h.45l.22.22.22-.22h.22c.42,0,.63.21.63.63h.22v-.85h-1.08c-.3,0-.45-.22-.45-.67l.22-1.53h.22l.63.45h.22l-.22-.22c.09-.72.31-1.08.67-1.08v-.45c-.57,0-.85-.15-.85-.45v-1.3l.18-.22v-.18l.22.18h.45c0-.27.22-.4.67-.4l.18-1.12h-.4v.45l-.45.45h-.67v-.22c.09-1.62.24-2.43.45-2.43h.45v-.18l-.67-1.12v-1.08h.45v-.22l.22.22h.22c.42,0,.63-.22.63-.67h.22v.45h2.2l.85-.22,2.65.67c.63-.72,1.2-1.08,1.71-1.08l.45.4h.22v-.22c-.45,0-.67-.13-.67-.4h.22l-.63-.9c-.15.39-.96.76-2.43,1.12l-.4-.45h-.45l-.22.22h-.22l-.22-.22v-.22l.45-1.3-1.3.45h-.67l-.22-.22-.22.22h-.18c-.21-.3-1.09-.45-2.65-.45l-.63-2.83c.27,0,.4-.3.4-.9l1.12-.22-2.43-2.16.22-.22v-.22l-2.61-4.36c-2.16-2.63-4.93-4.46-8.31-5.48-1.74-.21-2.61-.49-2.61-.85v-10.92l.4-.45ZM267.46,98.44h.45l-.22,1.08h-.22l-.4-.45v-.22l.4-.4ZM267.06,101.04h.4v1.75l-.4.4v-2.16ZM270.34,105.4l-.22.22v.45l.63.22v-.45l-.4-.45ZM270.34,100.37v.22l.63.22v-.45h-.63ZM275.33,103.02v.18h.45l.22-.63h-.22l-.45.45ZM279.73,92.73l.22.67h.18l.45-.45v-.45l-.45-.4c-.27,0-.4.21-.4.63ZM281.03,90.98l.22.67h.22l.4-.45v-.45l-.4-.4c-.3,0-.45.21-.45.63ZM281.88,73.51l1.53.45-.22.22v.45l.22.22v.18l-.22.22c-1.02,0-1.53-.51-1.53-1.53l.22-.22ZM282.33,91.88v.22l.22.18h.63v-.18l-.85-.22ZM282.56,83.34v.22l.22.67h.63l-.4-.9h-.45ZM282.56,88.15l.45.45h.18l-.4-.45h-.22ZM282.78,51.45v.22c.27,0,.4.22.4.67h.45v-.9h-.85ZM283.64,77.68c0,.42-.15.63-.45.63l-.18-.22h-.22v.22c0,.36.79.66,2.38.9,0,.42.15.63.45.63l.22-.22v-.18c-.45,0-.67-.3-.67-.9l-.22.22h-.22c-.39,0-.6-.36-.63-1.08h-.45ZM283.86,85.1l-.22.85h.67l.85-.4-.22-.22v-.22l-.22.22h-.4l-.22-.22h-.22ZM285.16,90.76l.22.22-.22.22h.67l-.22-.85-.45.4ZM286.69,80.07l-.22-.22h-.22l-.18.22v.45l.18-.22h.67l.67.45v-1.12h-.22l-.67.45ZM286.24,80.74v.22l.22.63-.22.22h.67v-.22l-.45-.85h-.22ZM287.14,71.75v.67h.22l.22-.67h-.45ZM287.99,70.23v.22l-.4.45v-.22l.4-.45ZM288.44,81.37l.22.67h.67v-.45l-.9-.22ZM291.5,63.71c0,.42-.36.63-1.08.63v.22h.85l1.3-.45v-.4h-.4l-.22.18h-.22l-.22-.18ZM290.64,79.62v.22h1.08l-.45-.4-.63.18ZM291.05,73.51l.22.22v.22l.22-.22h.9c.27,0,.4.3.4.9l.22.22h.22l.22-.22-.22-1.3h-1.08l-1.12.18ZM293.92,75.03l-.22,1.12.63.22.67-.22.22.22v.18l.63-.18v-.9h-.18c0,.45-.15.67-.45.67-.6,0-.9-.37-.9-1.12h-.4ZM294.55,81.37l-.22.67h.67v-.67h-.45Z"/>
    <path class="cls-2" d="M310.37,43.86l.22.22h2.52l.45.45v25.88l-.22.9.22.67h-.22l.22.22v7.55l-.22.27.22.22v27.9l-.45.45h-1.39v-.67h-.45c0,.45-.15.67-.45.67h-7.32v-.67h-.45v.67h-3.68l-.45-.45v-63.61l.45-.45h10.78l.22-.22ZM300.98,102.44v.45h.67v-.45h-.67ZM301.2,105.85v.67l.45-.45v-.22h-.45ZM302.1,105.63h.94l-.49-.45-.45.45ZM305.06,104.01v.22c1.08-.15,1.62-.37,1.62-.67v-.22h-.9l-.72.67ZM305.78,106.08l.22.67h.22v-.67h-.45ZM307.85,79.08c0,.57-.46.96-1.39,1.17v.22h1.17l.45-1.17v-.22h-.22ZM306.91,99.2v.22l.72.72h.22v-.94h-.94ZM308.52,106.08l-.45.45v.72l.67-.94v-.22h-.22ZM308.3,100.15v.45h.67l-.45-.45h-.22ZM308.97,81.37v.45h.9l.27-.9h-.27l-.9.45ZM309.2,105.63l-.22.22v.22h.67l-.45-.45ZM310.81,92.82c0,.45-.46.67-1.39.67v.45l1.84-.67v-.45h-.45ZM310.59,71.31l.45.45h.22v-.45h-.67ZM311.49,91.43l-.22.94h.45l.22-.94h-.45ZM312.39,69.96c0,.6-.3.9-.9.9v.22h.22c.69-.3,1.08-.6,1.17-.9v-.22h-.49ZM311.71,79.08v.45h.94v-.45h-.94ZM312.16,63.53v.45h.72v-.45h-.72ZM316.29,44.08h12.35c9.16.48,13.75,1.78,13.75,3.91h1.12c4.28,3.08,6.42,7.73,6.42,13.93,0,6.86-2.61,11.67-7.82,14.42l-.45-.45c0,.75-.91,1.29-2.74,1.62v.22c2.63,0,5.08,2.35,7.32,7.05l-.22.27h-.9l-.22-.27h-.27l-.22.94h.22l1.39-.22c.6,0,1.06,1.68,1.39,5.03h-.49l-1.12-.22-.9,1.12c.42,0,.79.31,1.12.94v.45l-.22.22v.22h1.62v-.45h.45l1.35,7.1c-.9.3-1.35.6-1.35.9v.22h1.12c.45,0,.91,1.06,1.39,3.19l-.72.72v.67l.72-.45h.22c.36.15.97.99,1.84,2.52l-.94.9h-3.64l.45-1.84v-.67c-.45,0-.75.84-.9,2.52h-3.91l-.45-.45.22-.22h.45l1.17.22v-.67l-.27-.94.72-.9,1.12.22.94-.22v-1.17c-2.31.51-3.46.97-3.46,1.39l.22,1.39-.22.22h-2.07c0,.75-.15,1.12-.45,1.12h-3.64c-.51,0-1.42-1.83-2.74-5.48l.22-.67c-.42,0-1.26-4.04-2.52-12.13-.54-1.92-1.77-3.44-3.68-4.58-1.8-.63-4.24-.94-7.32-.94v-.67h.45v-.45h-.45c0,.3-.3.45-.9.45v.67l-3.91.27h-.67l-.45-.49v-4.31c0-.33.37-.49,1.12-.49v-.45h-.22l-.67.22-.22-.22v-5.71l.45-.45h5.71c9.01,0,13.52-2.67,13.52-8v-1.84c-.54-4.43-2.68-6.65-6.42-6.65,0-.27-1.9-.42-5.71-.45h-7.1l-.45-.45v-11.23l.45-.45ZM319.04,79.53v.22l1.39.72h2.02v-.45h-2.02c-.33,0-.49-.24-.49-.72l-.9.22ZM319.48,74.05v.45l.45.49-.22.22v.67h.94l-.22-.22v-.22l.67-.94-1.39-.45h-.22ZM321.78,73.6l-.22.9h.67v-.9h-.45ZM322.72,80.47l.45.45h1.35v-.22l-.45-.45-1.35.22ZM325.23,78.4l.22.67h.45l.45-.45v-.22l-1.12-.22v.22ZM330.49,73.15l.45.67-.22.22h-.22l-.22-.22c-.78,0-1.78.39-3.01,1.17h-.67l.22.22v.22l-.45,1.35h.67c.93-.33,1.39-.93,1.39-1.8l.67-.49h.94c.45,0,.67.31.67.94h.45l.67-1.17c-.3,0-.45-.3-.45-.9l-.22-.22h-.67ZM332.06,82.76l.72,3.41h.45v-.67l-.45-1.84.45-.67v-.22h-1.17ZM334.13,77.24l-.45.94,2.29.9v-.45c-.3,0-.45-.3-.45-.9l-.94-.49h-.45ZM334.13,70.86l.94.9h.9l.45-.45h-1.84v-.45h-.45ZM334.8,96.46c.18.93.42,1.39.72,1.39l.45-.45v-.27l-.67-.67h-.49ZM335.3,87.79l-.22.9v.22h.22l.22-.9v-.22h-.22ZM336.2,80.92l-.22.22v.45l.9-.45v-.22h-.67ZM335.97,91.88l.9,1.39h.45v-.45c-.45,0-.67-.31-.67-.94h-.67ZM336.2,101.04c.99.3,1.6.76,1.84,1.39l2.07.67v-.67c-1.05,0-1.89-.54-2.52-1.62l-.27-.22h-.67l-.45.45ZM336.64,97.85l.45.45h.49v-.45h-.94ZM336.64,103.78l.45.45h.22l-.45-.45h-.22ZM336.87,73.6v1.84h.45v-1.84h-.45ZM337.32,95.34v.22h.49v-.67l-.49.45ZM338.49,68.12l-.22.67.22.67h.22l.22-1.35h-.45ZM339.16,88.02v.22h.22l.72-.67v-.49l-.94.94ZM339.16,106.97v.49h.22l1.17-.22v-.72h-.45l-.94.45ZM339.83,90.08h.27l.45-.49h-.22l-.49.49ZM341,94.4l-.67-.45-.49.45v.22h1.62l.22.27c.93-.33,1.39-.64,1.39-.94l-.22-.22h-.22c-.57.45-1.11.67-1.62.67ZM339.83,96.91l.27.94h.22l.9-.45v-.49h-1.39ZM340.55,93.05v.22l.45.45h.45l.45-.45-1.35-.22ZM342.12,102.89c0,.6-.15.9-.45.9l.22.22v.22l-.45.72v.22h.94v-2.29h-.27ZM341.9,58.05h.22l.49-.45h-.22l-.49.45ZM342.39,90.08v.45l1.12-.22v-.22h-1.12ZM342.84,99.2c0,.3.52.76,1.57,1.39h.49v-.22c0-.24-.54-.63-1.62-1.17h-.45ZM343.07,92.37h.45l.9-.49v-.45h-.22c-.69.3-1.06.61-1.12.94ZM344.19,86.62l-.45.72.9.67.27-.22h.22l1.35.9v-1.84h-.67l-1.17.22-.45-.45ZM343.74,96.91v.49h.9v-.49h-.9ZM343.97,84.11v.22l.67.22v-.45h-.67ZM344.64,88.47v1.39c.33,0,.49-.24.49-.72l-.22-.67h-.27ZM345.58,101.49l.45.45.45-.45h-.9ZM348.1,102.89v.45h.9v-.45h-.9Z"/>
    <path class="cls-2" d="M359.2,44.26h7.77l.45.45v6.15h-.45c0-.9-.15-1.35-.45-1.35l-.45.45v.45c0,.3.45.61,1.35.94v7.05l-1.57-.22h-.22v.22l1.8.72v2.74h-.67v.45c.45,0,.67.15.67.45v10.96c-.6,0-.9.54-.9,1.62l.22.22-.67.45h-.67c-.3,0-.45-.39-.45-1.17h-.27c0,.78-.22,1.17-.67,1.17h-1.12l-.45-.45v-.94c.45,0,.67-.15.67-.45l-.22-1.12-.22.22h-.22l.22.22v.67l-.49.45h-.67c-.75-.27-1.12-.94-1.12-2.02v-.27l.67-.22-.45-1.35c.6,0,.9-.39.9-1.17h1.84v-.9h1.35l.27-.22h.22c0-.45-.31-.67-.94-.67l-.22-1.39-.22.22h-.22l.22.22v.49l-.67.67-.94.22v.67l-.22-.22h-.45l-.45,1.39-.9-.49v.49h-2.29v-.94l.22-1.12c-.45,0-.67-.15-.67-.45v-.94l.67-.22c.27,1.08.88,1.62,1.84,1.62v-.22c-.78-.45-1.17-.99-1.17-1.62l.45-.45.22.22h1.17v-1.35c0-.33.22-.49.67-.49v-.45c-.9,0-1.35-.45-1.35-1.35l-.22.22h-.27l-2.02-.45-.22.22v-.45c.45,0,.67-.16.67-.49v-.67h-.45v.45l-1.17-.22h-.45v.22h.45v.45l-.9.27v-1.17h.67v-.9l-.22-.22v-.22c.6-.27.9-.73.9-1.39h.72l.67.67-.45.49.45,1.35h.45v-.9h.22l.45.45-.22.22v.22h.45l1.39-.45v-.45c-.87,0-1.86-.54-2.96-1.62v-1.84h-.45c0,.36-.31.82-.94,1.39l-.22-.22h-1.12l.45,1.57c0,.48-.61,1.09-1.84,1.84v.22h-.9v-1.8l.45-1.62h-.45v-.9h.45v.67c1.14,0,1.75-.3,1.84-.9v-.27h-.22v.49c-1.23-.15-1.84-.69-1.84-1.62l.9-.67h1.39l-.22,1.12v.45h.22c.03-.6.18-.9.45-.9l-.45-2.07.45-.45v-.22c-.45,0-.67-.15-.67-.45l-.22.22h-.22l-.72-.67v-.22c.78,0,1.17-.31,1.17-.94l-.22-.22.22-.22.22.22h.67l1.17-.22.22,1.39h.22c.51-.48.96-.72,1.35-.72v-.45l-.9-.22.67-2.07c-.39,0-.69-.45-.9-1.35l.45-.67,1.12.45.27-.22-.49-1.39v-.22ZM356.23,44.26v.67h.22c0-.36.31-.58.94-.67l.45.67v.45c-.45,0-.67.24-.67.72l-.94.45-.9-.22c-.3.69-.6,1.06-.9,1.12l-.22-.22h-.27l-.67.9,1.39.27v1.57c-.63,0-.94.22-.94.67h-.9v-2.52l.22-2.02-.22-1.62.22-.22h3.19ZM352.82,61.6h.45l.22,1.17-.22,1.57-.45-.45v-2.29ZM355.11,62.32c.33,0,.78.76,1.35,2.29h.22l.27-1.17c-.48,0-.72-.15-.72-.45l1.17-.22,1.12.67h.22v.67l-.45.49h-1.12c0,.69-.24,1.21-.72,1.57h.22l-.22.22v.22l.49,1.39-.72.45-.67-.67h-.22l-.45.45c0,1.17.52,1.86,1.57,2.07v.22l.22-.22h.27l.45.45v1.57c-.78,0-1.17.17-1.17.49v.22c.27.6.81.9,1.62.9,0-.9.15-1.35.45-1.35v.22l.67-.22v-.27c0-.3-.22-.45-.67-.45l-.22-.22v-.67l.45-.67c1.23,0,1.84.52,1.84,1.57-.3,0-.45.39-.45,1.17h-.49v.67c2.01,1.41,3.01,2.25,3.01,2.52,0,.3.37.45,1.12.45l.22.22v1.17l-.22,1.12h.22l1.17-.45.22.22v-.45c0-.3-.31-.45-.94-.45,0-.33.39-.49,1.17-.49v-.22l1.35.49v-.27l.22-.9h.45v5.26l-.22,1.62.22,2.02v15.09c0,.54-.3,1.15-.9,1.84v.45l.22-.22h.67v.22l-.22.22.22,1.12v2.96l-1.35,1.39h-1.12l-.72-.45.22-.22v-.72l-1.35.49v.45h-1.39v-.94l.94-.45h.22v-.22l-.45-.45h-.27c0,.39-.45.85-1.35,1.39l-1.39-.27c.18-1.05.42-1.57.72-1.57h1.12c0-.45.39-.67,1.17-.67l.9-1.39v-.22h-.9v-1.35h.9l1.35,1.12h.49v-.22c-.78,0-1.17-.46-1.17-1.39v-.22c.63,0,1.09-.37,1.39-1.12h.22v.45h.45v-.67l-.45-1.84h-.45l-.72,1.39.49.45-2.52,1.8-.72-.22v.22c0,.69-.6,1.15-1.8,1.39-.33-.69-.79-1.06-1.39-1.12v-.72l.45-.45h.22l1.17.22-.22-.22v-.22l.45-1.35h-1.17l.27.22v.45h-.72l-.45-.94v-.22h-.22c0,1.08-.15,1.62-.45,1.62h-.45l-.72-.22v.22l-.45,1.35-.22-.22h-.22l-.45.49c1.08,0,1.62.3,1.62.9l.22,1.12-1.84.22.22.22v1.62c.93,0,1.39.15,1.39.45v1.39h-1.39c-.27,0-.49-.46-.67-1.39-1.08,0-1.62-.15-1.62-.45v-1.62h.45v-.22c-.6,0-.9-.15-.9-.45v-4.09l1.62-1.39h-1.62v-.22l.45-.67v-.67l-.45-.72v-13.48c0-.3.22-.45.67-.45v-.22c-.45,0-.67-.15-.67-.45v-5.03l.45-.45h.22l.22.22h.22v-.22l-1.12-1.17v-8.89h.45l.45.45h-.22l.22.72h.49v-1.17c0-.3.45-.45,1.35-.45v-.22l-1.62-.45v-.49l.27-.22v-.22l-.27-.22c.57-.27.96-.72,1.17-1.35ZM353.27,107.78l.22.22v.22l-.45.45-.22-.22v-.22l.45-.45ZM353.94,91.57v.45h.49l-.22.22v.22l.22.67h-.22l-.72.22v.22h.72c.54-1.05,1.53-1.57,2.96-1.57v-.45l-2.07.45-.45-.45h-.72ZM353.94,69.15l-.22.72.22.22h.27l.45-.72-.22-.22h-.49ZM356.01,77.86h.67v.22l-1.12.22v.45h.45v.9l.22,1.17-1.35.45v-.22l-1.17.22v.22l.22.22v.22l2.29-.45v.45h.45v-1.62h1.17l-.22-.9.22-.67h1.57l.72.67-.22.22v.45l.45.49v-.72h.45l.9.94v.22l-.22.22.22.22v.22l-.22,1.12h.45l.22-1.8.27.22h.45v-.22c-.3,0-.45-.39-.45-1.17-.78-.09-1.17-.31-1.17-.67l.9-1.84h-.67v.49h-.67l-.22-.27h-.22l.22-1.12v-.22h-.45l-.22,1.35-.22-.22h-.27l-.22.72h-1.57v.9h-.94v-.45h.49v-.22l-.22-.72h.22c.36,0,.66-.52.9-1.57h-.9l-1.17,1.84ZM354.43,102.53c0,.45-.24.67-.72.67l.49.45-.27.22v.45h1.17v-.22c-.3-.33-.45-.85-.45-1.57h-.22ZM354.21,83.34v.45l.67.22.22-.22v-1.17h-.22l-.67.72ZM354.66,72.34l-.22.27v.67l.67-.67-.22-.27h-.22ZM354.66,88.83l-.22.22v.22h.22v-.22l.22.22h.45v-.22l-.67-.22ZM354.88,98.17v.22l.45.45h.22v-.45l-.22-.22h-.45ZM355.11,86.08v.45l.67.67,1.17-.45v-.22l-.49-.45-1.12.22-.22-.22ZM355.11,95.43v.9l1.12-1.35-.22-.22-.9.67ZM355.56,89.27v.22l.67.67v-.22l-.67-.67ZM355.56,97.5l.45.45.67-.22v-.22h-1.12ZM355.56,99.56v.22l.45.45.45-.45-.9-.22ZM356.68,52.26v.45h.27l1.12-.22v-.67l-1.39.45ZM358.07,80.83c0,.75-.15,1.12-.45,1.12l-.67-.22c.3.36.45.9.45,1.62h.45c.27,0,.49-.39.67-1.17l-.22-.22.9-.45v.45h.22v-.9l-1.35-.22ZM357.62,90.4v.22h.9v-.45h-.22l-.67.22ZM358.52,103.65v1.17l-.45.45-.45-1.39.22-.22h.67ZM358.3,52.48v.67h.45v-.67h-.45ZM360.14,54.33v.67h.45v-.67h-.45ZM360.36,51.81v.22h.45l.22-.67h-.22l-.45.45ZM360.59,53.38v.22h.45l.45-.45-.22-.22h-.22l-.45.45ZM360.81,48.13h.22l.67-.67h-.22l-.67.67ZM360.81,86.53v.45h.9l.72-.67v-.22h-.27l-1.35.45ZM362.65,48.62v1.12h-.22l-.49-.45.22-.22h-.67v1.35h-.45v.45h.45c0-.54.69-.84,2.07-.9.36-.6.73-.9,1.12-.9v-.45h-2.02ZM364.23,64.61c0,.78-.22,1.23-.67,1.35l-.9-.22-1.62.22v.67l3.19-.67.45-.45v-.45l-.45-.45ZM364,56.84h-1.35l-.49-.45-.67.22v.9l1.17.22.22-.22,2.29.67v-.22c0-.3-.24-.45-.72-.45v-.22l.94-.9h1.35l.22-.72-.22-.22h-.45l-2.29,1.39ZM362.43,45.88l-.49.9h.49l.45-.45-.45-.45ZM362.16,60.03l-.22.22v.22l.72.67.22-.22h.45c.75,0,1.12.31,1.12.94h.72v-.27c-.63-.66-1.63-1.18-3.01-1.57ZM362.16,89.27v.45l1.39.22v.22c0,.51-.22,1.05-.67,1.62v.22h.45c.3,0,.45-.31.45-.94l1.39-.22v-1.12l-3.01-.45ZM362.43,84.69v.67h.22l.67-.22v-.45h-.9ZM362.88,61.87v.45c.3,0,.45.3.45.9h.45l-.67-1.12v-.22h-.22ZM363.78,52.26l.22,1.12h-.45v.72h.22l2.07-.94h.22v-.22l-1.12-.22h-.72v-.45h-.45ZM363.55,70.54v.22l.22.67h.9v-.45l-.9-.45h-.22ZM363.78,63.44v.67h.45l-.22-.67h-.22ZM364,82.4v.22l.45.45v-.67h-.45ZM364.45,87.66l-.22.94h.45v-.94h-.22ZM365.39,95.88c0,.78-.39,1.17-1.17,1.17v.22l1.84.22v-1.39l-.67-.22ZM364.68,85.37v.22l.27,1.62h.67c0-.75.37-1.12,1.12-1.12-.09-.6-.54-1.06-1.35-1.39l-.72.67ZM365.17,81.05v.9c.21,0,.43-.3.67-.9h-.67ZM365.39,46.33c.3,1.2.6,1.8.9,1.8l.67-.67c-.3,0-.45-.37-.45-1.12l-.22-.22h-.22l-.67.22ZM365.39,61.87h.9l-.45-.49-.45.49ZM365.39,105.94v.22h.22c.9-.15,1.35-.37,1.35-.67v-.22h-.9l-.67.67ZM365.62,70.09l.45.45h.45v-.22l-.22-.72h-.22l-.45.49ZM366.07,91.57l-.22.22v.67c.45,0,.67.3.67.9h.67c-.6-.69-.9-1.21-.9-1.57h.45v-.22h-.67ZM370.43,44.26h5.48l.45.45-.45.45v.72h.22c.45,0,.67-.54.67-1.62h3.86l.22.22.27-.22h2.96c.09.75.31,1.12.67,1.12l.22-.22h.22l-.22-.22v-.67h5.71v.67l.22-.22.22.22h.45v-.22l-.22-.22v-.22h8.22l.49.45v10.96l-.49.45h-5.93v-.67c-.3,0-.45.22-.45.67h-13.03l-.67-.45-.67.45h-8.45l-.49-.45v-1.8l.22-.27-.22-.22v-7.05h.49v-.67h-.49v-.94l.49-.45ZM370.16,68.7c.96,0,1.65.69,2.07,2.07l-.22.22h.45l.22-.22.22.22h.27l.67-.67-1.17-1.17v-.45h.22l.27.22h.22l.22-.22,1.12.22h1.84l1.12-.22v.22l.22-.22h.72l.67.22,1.12-.22h3.91l1.8.45.49-.45h.22l.22.22.22-.22h9.12l.45.45v.22h-.22l-1.12-.22-.22.22v.22l1.84.49.22-.72h.45v4.13c-1.11-.15-1.95-.54-2.52-1.17h-1.39v-.45h-1.35c0-.6-.31-.9-.94-.9v.22c.36,1.38.75,2.07,1.17,2.07.45,0,.67.22.67.67l.22.22h.22c0-.6.24-.9.72-.9l.67-.45,1.35.9h.49l.22-.22h.22l.22,1.57v3.01l-.22.22.22.22v.22l-.22,1.57-1.62-.22-.45.49h-.45v-.27l-1.62.27h-2.74l-.22-.27-.22.27h-1.62l-.22-.27-.22.27h-1.35l-.94-.27-.9.27h-1.62l-.45-.49-1.8.49h-5.97c-.3,0-.6-.46-.9-1.39h-.22l-.45.67-.72-.22v.22c0,.48-.38.72-1.12.72h-1.35v-.49h1.12v-.22l-.22-.22.22-.67h.22l.22.22h.22l.22-.22v-1.12c0-.33-.22-.49-.67-.49l-.22.22h-.22l-.67-.22.22.22-.22.27v.22l.22.67-.45,1.12h-.49v-2.74l.22-.22-.22-.22v-4.81h.22c.33,0,.57.61.72,1.84h.22c0-.93.15-1.54.45-1.84v-.22l-1.39-1.35v-.72l.27-.22-.27-.22v-.45ZM373.39,96.55h1.35l.94.72c0-.48.15-.72.45-.72h2.02v.27l-.22.22v.22l.22.22h.27l.9-.94h7.77l.67.49.9-.49c.51.18.82.49.94.94l-.22.22,1.8.9v-.45c-.57,0-.94-.54-1.12-1.62h3.86c.63,0,1.71.46,3.23,1.39l.45-.45-.22-.22v-.72h2.96l.45.49v1.8l-1.39,2.07h.22l.94-.67h.22v2.96l-.22.22.22.22v.22l-.45.67.45.72v2.96l-.45.45h-9.16v-.22l.94-.22v-.22h-.49v.22l-.22-.22h-.67v.67h-3.64l-1.17-.9.72-1.39c-1.35-.15-2.19-.37-2.52-.67l-1.62.67v.67c.45,0,.67.24.67.72h-.22l.22.22v.22l-.45.45h-3.19v-.22c0-.3.22-.45.67-.45l-.67-.94h-1.12v-.45h-1.39c0,.78-.45,1.17-1.35,1.17l-.49-.49v-1.57h.72l-.22-.22v-1.39l.22-.22v-.22c-.51-.45-.97-.67-1.39-.67v-.22l.22-.22-.22-.22v-.22l.45-.72c-.09-.39-.46-.76-1.12-1.12l-.94.45.27,1.12c0,.51-.24,1.05-.72,1.62v.45c0,.36.39.58,1.17.67v.49h-.72c0,.45.31.67.94.67v2.29h.9v.22l-.45.45h-2.96c0-.45-.3-.67-.9-.67l-.27-.22v-1.39l.49-.67v-.9h-.72v-1.84l1.39-1.17c0-.45.3-.67.9-.67v-.45h-.9l.45-2.29c.3,0,.45.22.45.67.63,0,.94-.3.94-.9l.22-.22-.22-.22h-.27v-.67l.49-.49ZM369.93,99.07h.49l.45.49v.9h-.94v-1.39ZM371.77,50.64l-.22.22v.27l.22.22h.22l.22-.22.67.9v1.35h.27l.67-.22v-.22c-.42-.99-1.11-1.75-2.07-2.29ZM372,47.23l.67.45.22-.67-.22-.22h-.22l-.45.45ZM372.45,53.61v.49h.45l.49-.49h-.94ZM372.45,76.92v.22h.22l1.17-.22v-.45h-.22l-1.17.45ZM372.67,73.73v.45h.49c0,.3.22.45.67.45v1.62h.45l.22-1.17c-.87-.9-1.48-1.35-1.84-1.35ZM373.84,71.44c0,.84.37,1.45,1.12,1.84l1.17-1.62v-.22h-.22c0,.3-.31.45-.94.45v.45h-.22v-.45l-.45-.45h-.45ZM374.06,54.55v.9h.22l.22-.67-.22-.22h-.22ZM374.74,49.07v.9l.45-.45v-.45h-.45ZM376.58,75.57l.45.67-1.12.45c0,.24.3.46.9.67,0-.24.37-.46,1.12-.67l.22.22-.22-.9-.22.22h-.45v-.67h-.67ZM377.25,107.56h.67l.94.9v.22h-2.07l-.45-.45.9-.67ZM377.48,69.6v.27l.67-.27v-.45h-.22l-.45.45ZM377.48,72.83v.22l.22.67h.22l.49-.45-.94-.45ZM377.48,101.58v.22l1.39,1.17.45-.45h.9l2.07,1.8.22-.22v-.22c-.6,0-.9-.37-.9-1.12l.22-1.17-.67.94h-.49l-1.57-.72-.94.27-.67-.49ZM378.15,70.99v.67h.49v-.22l-.49-.45ZM378.42,69.37v.49h.22l.67-.27v-.45h-.22l-.67.22ZM379.32,53.16v.45h.45l.45-.45h-.9ZM379.77,48.13l-.22.94h.45l.45-.45-.67-.49ZM380.89,97.94v.45h.49v-.9l-.49.45ZM382.96,78.99v.67h.22l.72-.22v-.22l-.94-.22ZM383.63,106.39c.84,0,1.45.46,1.84,1.39h.22v.45l-1.12.45h-.45c0-.63-.31-1.24-.94-1.84l.45-.45ZM383.9,101.13v1.39l.22.22v.22h-.72c0,.24.46.54,1.39.9v-.22l-.22-.22v-.22l.22-.22-.67-.22c.06-.78.28-1.17.67-1.17l-.45-.45h-.45ZM383.63,97.5v.22l.72.22v-.22l-.22-.22h-.49ZM384.8,53.61l-.45,1.39h.22l.67-.67v-.72h-.45ZM384.8,72.34v.49h1.12v-.49l-.22.27h-.22l-.67-.27ZM384.8,98.84l.45.49.45-.49h-.9ZM386.15,76.02v.9l.72.22.45-1.35-1.17.22ZM387.09,102.53v3.41c.51.72,1.11,1.17,1.8,1.35v-.22l-.9-1.57.45-.94-.9-.9v-1.12h-.45ZM387.54,70.09c.45,0,.99.3,1.62.9,0-.45.22-.67.67-.67,0,.24.52.61,1.57,1.12v-.45c-.72,0-1.39-.46-2.02-1.39h-1.39l-.45.49ZM387.77,99.79l-.22.22v.67h.22c0-.45.15-.67.45-.67v-.22h-.45ZM387.99,55v.45l.45.45v-.9h-.45ZM388.21,50.19h.67v-.67l-.67.67ZM388.44,98.17v1.17l.45-.49-.22-.67h-.22ZM388.44,101.58v.22l.22.72h.22v-.22l-.22-.72h-.22ZM388.89,76.7v.45l.72,1.62h.22v-1.39c-.3,0-.45-.22-.45-.67h-.49ZM389.38,78.99c0,.45-.17.67-.49.67v.45l.94-.45v-.67h-.45ZM388.89,101.36v.45l.94-.22v-.9l-.67.67h-.27ZM390.96,47.45c0,.63-.45.94-1.35.94l-.22-.27-.22.94h1.35l.67-1.39v-.22h-.22ZM389.38,73.28l.22.9h.45l.45-.45-.45-.45h-.67ZM389.61,74.63v.94h.22v-.94h-.22ZM389.83,103.42v.67l-.22,1.17h.22l.45-.45v-1.39h-.45ZM390.96,102.75v.45l.22.22h.45v-.22l-.45-.45h-.22ZM393.02,102.98l.22.22.22.22c.3,0,.45.3.45.9l.72.22.22-.22v-.45l-1.39-.9h-.45ZM393.92,75.08l.22,1.17.72-.67-.49-.49h-.45ZM395.31,100.24v.45l.22,1.12h.22l.22-1.35-.22-.22h-.45ZM398.5,101.13l-.45.45c.15,1.17.37,1.93.67,2.29l-.9,1.39h.45c0-.3.22-.45.67-.45v-.72l-.22-1.12.9-.22.27.22.22-.22-.22-.94-1.17.27-.22-.27.22-.22v-.45h-.22Z"/>
  </g>
  <g>
    <path class="cls-1" d="M29.05,18.04h-10.28v-6.87c0-2-.11-3.24-.33-3.74-.22-.5-.7-.74-1.45-.74-.85,0-1.38.3-1.61.9-.23.6-.34,1.9-.34,3.91v18.36c0,1.92.11,3.17.34,3.76.23.59.74.88,1.54.88s1.27-.29,1.5-.88c.24-.59.35-1.97.35-4.14v-4.97h10.28v1.54c0,4.09-.29,6.99-.87,8.7-.58,1.71-1.86,3.21-3.83,4.5-1.98,1.29-4.42,1.93-7.31,1.93s-5.49-.54-7.45-1.64c-1.95-1.09-3.25-2.6-3.88-4.53s-.95-4.83-.95-8.7v-11.55c0-2.85.1-4.98.29-6.41s.78-2.8,1.75-4.11c.97-1.32,2.31-2.36,4.03-3.11,1.72-.76,3.69-1.14,5.92-1.14,3.03,0,5.53.58,7.5,1.76,1.97,1.17,3.26,2.63,3.88,4.38.62,1.75.93,4.46.93,8.15v3.75Z"/>
    <path class="cls-1" d="M42.31,7.96l-.39,4.26c1.43-3.05,3.51-4.67,6.23-4.85v11.4c-1.81,0-3.13.24-3.98.73-.85.49-1.37,1.17-1.56,2.04s-.29,2.88-.29,6.02v12.79h-9.86V7.96h9.86Z"/>
    <path class="cls-1" d="M72.66,19.34v7.93c0,2.91-.15,5.05-.44,6.41s-.92,2.63-1.88,3.81c-.96,1.18-2.19,2.05-3.7,2.61-1.51.56-3.23.84-5.19.84-2.18,0-4.03-.24-5.54-.72-1.51-.48-2.69-1.2-3.53-2.17-.84-.97-1.44-2.14-1.79-3.52-.36-1.38-.54-3.44-.54-6.19v-8.3c0-3.01.33-5.36.98-7.06.65-1.69,1.82-3.05,3.52-4.08,1.69-1.03,3.86-1.54,6.49-1.54,2.21,0,4.11.33,5.7.99s2.81,1.52,3.67,2.58c.86,1.06,1.45,2.15,1.77,3.27s.48,2.83.48,5.13ZM62.79,16.89c0-1.66-.09-2.71-.27-3.14-.18-.43-.56-.65-1.15-.65s-.98.22-1.17.65-.29,1.48-.29,3.14v14.62c0,1.53.1,2.53.29,2.99s.58.7,1.15.7.97-.21,1.16-.63c.19-.42.28-1.33.28-2.73v-14.94Z"/>
    <path class="cls-1" d="M96.05,18.31h-8.74v-1.76c0-1.5-.09-2.45-.26-2.84s-.6-.6-1.28-.6c-.55,0-.97.18-1.25.55-.28.37-.42.92-.42,1.65,0,.99.07,1.72.21,2.19.14.46.55.97,1.25,1.53.69.55,2.11,1.36,4.26,2.42,2.86,1.4,4.74,2.72,5.64,3.96.9,1.24,1.34,3.04,1.34,5.4,0,2.64-.34,4.63-1.03,5.97s-1.83,2.38-3.43,3.1c-1.6.72-3.54,1.09-5.8,1.09-2.51,0-4.65-.39-6.43-1.17s-3.01-1.84-3.67-3.17c-.67-1.33-1-3.35-1-6.05v-1.56h8.74v2.05c0,1.74.11,2.87.33,3.39.22.52.65.78,1.31.78.7,0,1.19-.17,1.46-.52.28-.35.42-1.09.42-2.21,0-1.55-.18-2.51-.54-2.91-.37-.39-2.29-1.55-5.74-3.47-2.9-1.63-4.66-3.1-5.3-4.43s-.95-2.9-.95-4.72c0-2.59.34-4.5,1.03-5.72s1.84-2.18,3.48-2.84c1.64-.67,3.54-1,5.7-1s3.98.27,5.48.82c1.51.54,2.66,1.27,3.47,2.16.81.9,1.29,1.73,1.46,2.49.17.77.26,1.96.26,3.59v1.88Z"/>
    <path class="cls-1" d="M119.58,18.31h-8.74v-1.76c0-1.5-.09-2.45-.26-2.84s-.6-.6-1.28-.6c-.55,0-.97.18-1.25.55-.28.37-.42.92-.42,1.65,0,.99.07,1.72.21,2.19.14.46.55.97,1.25,1.53.69.55,2.11,1.36,4.26,2.42,2.86,1.4,4.74,2.72,5.64,3.96.9,1.24,1.34,3.04,1.34,5.4,0,2.64-.34,4.63-1.03,5.97s-1.83,2.38-3.43,3.1c-1.6.72-3.54,1.09-5.8,1.09-2.51,0-4.65-.39-6.43-1.17s-3.01-1.84-3.67-3.17c-.67-1.33-1-3.35-1-6.05v-1.56h8.74v2.05c0,1.74.11,2.87.33,3.39.22.52.65.78,1.31.78.7,0,1.19-.17,1.46-.52.28-.35.42-1.09.42-2.21,0-1.55-.18-2.51-.54-2.91-.37-.39-2.29-1.55-5.74-3.47-2.9-1.63-4.66-3.1-5.3-4.43s-.95-2.9-.95-4.72c0-2.59.34-4.5,1.03-5.72s1.84-2.18,3.48-2.84c1.64-.67,3.54-1,5.7-1s3.98.27,5.48.82c1.51.54,2.66,1.27,3.47,2.16.81.9,1.29,1.73,1.46,2.49.17.77.26,1.96.26,3.59v1.88Z"/>
    <path class="cls-1" d="M123.27.83h17.41v7.91h-7.13v7.5h6.35v7.52h-6.35v16.6h-10.28V.83Z"/>
    <path class="cls-1" d="M153.03.83v5.15h-10.16V.83h10.16ZM153.03,7.96v32.4h-10.16V7.96h10.16Z"/>
    <path class="cls-1" d="M166.97,3.64v5.1h2.66v5.13h-2.66v17.33c0,2.13.11,3.32.33,3.56s1.14.37,2.75.37v5.22h-3.98c-2.25,0-3.85-.09-4.81-.28-.96-.19-1.81-.62-2.54-1.29s-1.19-1.45-1.37-2.32c-.18-.87-.27-2.92-.27-6.14V13.87h-2.12v-5.13h2.12V3.64h9.89Z"/>
  </g>
</svg>